<svg width="840" height="115" viewBox="0 0 840 115" fill="none" xmlns="http://www.w3.org/2000/svg">
<path d="M87.15 110L85.2837 110.719L85.7772 112H87.15V110ZM123.75 110V112H126.807L125.583 109.199L123.75 110ZM77.85 4.99999L79.6826 4.1989L79.1585 2.99999H77.85V4.99999ZM43.05 4.99999V2.99999H41.7415L41.2174 4.1989L43.05 4.99999ZM-2.85 110L-4.68256 109.199L-5.90703 112H-2.85V110ZM33.15 110V112H34.5228L35.0163 110.719L33.15 110ZM40.2 91.7V89.7H38.8272L38.3337 90.981L40.2 91.7ZM80.1 91.7L81.9663 90.981L81.4728 89.7H80.1V91.7ZM49.95 66.2L48.0844 65.4792L47.0332 68.2H49.95V66.2ZM60.15 39.8L62.0156 39.0792L60.15 34.2506L58.2844 39.0792L60.15 39.8ZM70.35 66.2V68.2H73.2668L72.2156 65.4792L70.35 66.2ZM87.15 112H123.75V108H87.15V112ZM125.583 109.199L79.6826 4.1989L76.0175 5.80108L121.917 110.801L125.583 109.199ZM77.85 2.99999H43.05V6.99999H77.85V2.99999ZM41.2174 4.1989L-4.68256 109.199L-1.01745 110.801L44.8826 5.80108L41.2174 4.1989ZM-2.85 112H33.15V108H-2.85V112ZM35.0163 110.719L42.0663 92.419L38.3337 90.981L31.2837 109.281L35.0163 110.719ZM40.2 93.7H80.1V89.7H40.2V93.7ZM78.2337 92.419L85.2837 110.719L89.0163 109.281L81.9663 90.981L78.2337 92.419ZM51.8156 66.9208L62.0156 40.5208L58.2844 39.0792L48.0844 65.4792L51.8156 66.9208ZM58.2844 40.5208L68.4844 66.9208L72.2156 65.4792L62.0156 39.0792L58.2844 40.5208ZM70.35 64.2H49.95V68.2H70.35V64.2ZM213.4 55.1L212.505 53.3111L208.358 55.385L212.712 56.9782L213.4 55.1ZM129.4 4.99999V2.99999H127.4V4.99999H129.4ZM129.4 110H127.4V112H129.4V110ZM164.2 45.35H162.2V47.35H164.2V45.35ZM164.2 29.75V27.75H162.2V29.75H164.2ZM164.2 85.25H162.2V87.25H164.2V85.25ZM164.2 68.75V66.75H162.2V68.75H164.2ZM214.294 56.8889C224.539 51.7664 229.95 42.9935 229.95 32.45H225.95C225.95 41.4065 221.46 48.8335 212.505 53.3111L214.294 56.8889ZM229.95 32.45C229.95 23.8561 226.263 16.3765 218.725 11.1218C211.271 5.92631 200.2 2.99999 185.5 2.99999V6.99999C199.749 6.99999 209.903 9.84868 216.437 14.4032C222.886 18.8985 225.95 25.1439 225.95 32.45H229.95ZM185.5 2.99999H129.4V6.99999H185.5V2.99999ZM127.4 4.99999V110H131.4V4.99999H127.4ZM129.4 112H188.5V108H129.4V112ZM188.5 112C203.171 112 214.719 109.309 222.659 104.055C230.711 98.7283 234.9 90.8587 234.9 81.05H230.9C230.9 89.5413 227.363 96.1467 220.452 100.72C213.43 105.366 202.778 108 188.5 108V112ZM234.9 81.05C234.9 74.4193 232.975 68.6225 229.351 63.8796C225.739 59.1507 220.52 55.5754 214.087 53.2218L212.712 56.9782C218.579 59.1246 223.11 62.2993 226.173 66.3079C229.224 70.3025 230.9 75.2307 230.9 81.05H234.9ZM180.7 31.75C184.513 31.75 186.914 32.4095 188.317 33.3813C189.58 34.257 190.25 35.5367 190.25 37.55H194.25C194.25 34.4633 193.119 31.843 190.595 30.0937C188.21 28.4405 184.836 27.75 180.7 27.75V31.75ZM190.25 37.55C190.25 39.5633 189.58 40.843 188.317 41.7187C186.914 42.6905 184.513 43.35 180.7 43.35V47.35C184.836 47.35 188.21 46.6595 190.595 45.0063C193.119 43.257 194.25 40.6367 194.25 37.55H190.25ZM180.7 43.35H164.2V47.35H180.7V43.35ZM166.2 45.35V29.75H162.2V45.35H166.2ZM164.2 31.75H180.7V27.75H164.2V31.75ZM185.5 83.25H164.2V87.25H185.5V83.25ZM166.2 85.25V68.75H162.2V85.25H166.2ZM164.2 70.75H185.5V66.75H164.2V70.75ZM185.5 70.75C189.213 70.75 191.652 71.4383 193.115 72.4796C194.46 73.4366 195.2 74.8456 195.2 77H199.2C199.2 73.7544 197.989 71.0384 195.434 69.2204C192.998 67.4867 189.587 66.75 185.5 66.75V70.75ZM195.2 77C195.2 79.1544 194.46 80.5634 193.115 81.5204C191.652 82.5617 189.213 83.25 185.5 83.25V87.25C189.587 87.25 192.998 86.5133 195.434 84.7796C197.989 82.9616 199.2 80.2456 199.2 77H195.2ZM300.465 114.4C335.621 114.4 361.715 90.548 361.715 57.5H357.715C357.715 88.052 333.71 110.4 300.465 110.4V114.4ZM361.715 57.5C361.715 24.452 335.621 0.599997 300.465 0.599997V4.6C333.71 4.6 357.715 26.948 357.715 57.5H361.715ZM300.465 0.599997C265.31 0.599997 239.215 24.452 239.215 57.5H243.215C243.215 26.948 267.221 4.6 300.465 4.6V0.599997ZM239.215 57.5C239.215 90.548 265.31 114.4 300.465 114.4V110.4C267.221 110.4 243.215 88.052 243.215 57.5H239.215ZM300.465 81.75C294.461 81.75 289.111 79.4811 285.252 75.385C281.393 71.2877 278.915 65.2391 278.915 57.5H274.915C274.915 66.1109 277.687 73.1873 282.341 78.1275C286.995 83.0689 293.419 85.75 300.465 85.75V81.75ZM278.915 57.5C278.915 49.7609 281.393 43.7123 285.252 39.615C289.111 35.5188 294.461 33.25 300.465 33.25V29.25C293.419 29.25 286.995 31.9311 282.341 36.8725C277.687 41.8127 274.915 48.8891 274.915 57.5H278.915ZM300.465 33.25C306.469 33.25 311.82 35.5188 315.678 39.615C319.537 43.7123 322.015 49.7609 322.015 57.5H326.015C326.015 48.8891 323.243 41.8127 318.59 36.8725C313.936 31.9311 307.511 29.25 300.465 29.25V33.25ZM322.015 57.5C322.015 65.2391 319.537 71.2877 315.678 75.385C311.82 79.4811 306.469 81.75 300.465 81.75V85.75C307.511 85.75 313.936 83.0689 318.59 78.1275C323.243 73.1873 326.015 66.1109 326.015 57.5H322.015ZM473.964 4.99999H475.964V2.99999H473.964V4.99999ZM439.164 4.99999V2.99999H437.164V4.99999H439.164ZM407.064 4.99999H409.064V2.99999H407.064V4.99999ZM371.664 4.99999V2.99999H369.664V4.99999H371.664ZM422.814 114.4C439.306 114.4 452.648 109.754 461.873 100.825C471.108 91.8862 475.964 78.9031 475.964 62.75H471.964C471.964 78.0969 467.369 89.9388 459.091 97.9504C450.805 105.971 438.572 110.4 422.814 110.4V114.4ZM475.964 62.75V4.99999H471.964V62.75H475.964ZM473.964 2.99999H439.164V6.99999H473.964V2.99999ZM437.164 4.99999V61.7H441.164V4.99999H437.164ZM437.164 61.7C437.164 69.5295 435.653 74.5078 433.283 77.5026C430.989 80.4011 427.637 81.75 423.114 81.75V85.75C428.49 85.75 433.163 84.0989 436.419 79.9849C439.599 75.9672 441.164 69.9205 441.164 61.7H437.164ZM423.114 81.75C418.59 81.75 415.238 80.4011 412.944 77.5026C410.574 74.5078 409.064 69.5295 409.064 61.7H405.064C405.064 69.9205 406.628 75.9672 409.808 79.9849C413.064 84.0989 417.737 85.75 423.114 85.75V81.75ZM409.064 61.7V4.99999H405.064V61.7H409.064ZM407.064 2.99999H371.664V6.99999H407.064V2.99999ZM369.664 4.99999V62.75H373.664V4.99999H369.664ZM369.664 62.75C369.664 78.9031 374.519 91.8862 383.754 100.825C392.98 109.754 406.322 114.4 422.814 114.4V110.4C407.056 110.4 394.823 105.971 386.536 97.9504C378.258 89.9388 373.664 78.0969 373.664 62.75H369.664ZM511.526 110H509.526V112H511.526V110ZM546.926 110V112H548.926V110H546.926ZM546.926 32.45V30.45H544.926V32.45H546.926ZM577.676 32.45V34.45H579.676V32.45H577.676ZM577.676 4.99999H579.676V2.99999H577.676V4.99999ZM480.776 4.99999V2.99999H478.776V4.99999H480.776ZM480.776 32.45H478.776V34.45H480.776V32.45ZM511.526 32.45H513.526V30.45H511.526V32.45ZM511.526 112H546.926V108H511.526V112ZM548.926 110V32.45H544.926V110H548.926ZM546.926 34.45H577.676V30.45H546.926V34.45ZM579.676 32.45V4.99999H575.676V32.45H579.676ZM577.676 2.99999H480.776V6.99999H577.676V2.99999ZM478.776 4.99999V32.45H482.776V4.99999H478.776ZM480.776 34.45H511.526V30.45H480.776V34.45ZM509.526 32.45V110H513.526V32.45H509.526ZM733.241 4.99999H735.241V2.99999H733.241V4.99999ZM698.441 4.99999V2.99999H696.441V4.99999H698.441ZM666.341 4.99999H668.341V2.99999H666.341V4.99999ZM630.941 4.99999V2.99999H628.941V4.99999H630.941ZM682.091 114.4C698.583 114.4 711.925 109.754 721.151 100.825C730.386 91.8862 735.241 78.9031 735.241 62.75H731.241C731.241 78.0969 726.646 89.9388 718.369 97.9504C710.082 105.971 697.849 110.4 682.091 110.4V114.4ZM735.241 62.75V4.99999H731.241V62.75H735.241ZM733.241 2.99999H698.441V6.99999H733.241V2.99999ZM696.441 4.99999V61.7H700.441V4.99999H696.441ZM696.441 61.7C696.441 69.5295 694.93 74.5078 692.56 77.5026C690.266 80.4011 686.915 81.75 682.391 81.75V85.75C687.767 85.75 692.441 84.0989 695.697 79.9849C698.877 75.9672 700.441 69.9205 700.441 61.7H696.441ZM682.391 81.75C677.867 81.75 674.516 80.4011 672.222 77.5026C669.852 74.5078 668.341 69.5295 668.341 61.7H664.341C664.341 69.9205 665.905 75.9672 669.085 79.9849C672.341 84.0989 677.015 85.75 682.391 85.75V81.75ZM668.341 61.7V4.99999H664.341V61.7H668.341ZM666.341 2.99999H630.941V6.99999H666.341V2.99999ZM628.941 4.99999V62.75H632.941V4.99999H628.941ZM628.941 62.75C628.941 78.9031 633.796 91.8862 643.031 100.825C652.257 109.754 665.599 114.4 682.091 114.4V110.4C666.333 110.4 654.1 105.971 645.813 97.9504C637.536 89.9388 632.941 78.0969 632.941 62.75H628.941ZM822.368 37.4L821.463 39.1837L823.388 40.1598L824.215 38.1669L822.368 37.4ZM833.018 11.75L834.865 12.5169L835.546 10.8762L833.997 10.0062L833.018 11.75ZM754.268 75.8L755.285 74.0781L753.348 72.9334L752.439 74.9917L754.268 75.8ZM742.868 101.6L741.039 100.792L740.332 102.39L741.821 103.304L742.868 101.6ZM788.618 114.4C805.207 114.4 817.912 110.272 826.515 103.469C835.151 96.6391 839.518 87.211 839.518 77H835.518C835.518 85.989 831.71 94.2609 824.034 100.331C816.324 106.428 804.579 110.4 788.618 110.4V114.4ZM839.518 77C839.518 66.7388 835.633 59.584 829.748 54.5504C823.956 49.5971 816.344 46.7945 808.998 44.8773C805.308 43.9144 801.63 43.1616 798.228 42.4812C794.8 41.7957 791.69 41.1904 789.034 40.5108C786.348 39.8237 784.334 39.1094 783.024 38.2885C781.763 37.4988 781.468 36.8294 781.468 36.2H777.468C777.468 38.7206 778.987 40.4793 780.901 41.6783C782.765 42.8461 785.287 43.681 788.043 44.386C790.828 45.0987 794.068 45.7285 797.443 46.4035C800.844 47.0837 804.421 47.8169 807.988 48.7477C815.155 50.618 822.055 53.2342 827.148 57.5902C832.147 61.866 835.518 67.9112 835.518 77H839.518ZM781.468 36.2C781.468 35.1552 781.875 34.1527 783.397 33.2903C785.072 32.3416 788.074 31.6 793.118 31.6V27.6C787.812 27.6 783.989 28.3583 781.426 29.8097C778.711 31.3473 777.468 33.6448 777.468 36.2H781.468ZM793.118 31.6C801.889 31.6 811.33 34.0437 821.463 39.1837L823.273 35.6163C812.706 30.2563 802.647 27.6 793.118 27.6V31.6ZM824.215 38.1669L834.865 12.5169L831.171 10.9831L820.521 36.6331L824.215 38.1669ZM833.997 10.0062C822.669 3.64398 807.758 0.599997 793.418 0.599997V4.6C807.278 4.6 821.466 7.55601 832.039 13.4938L833.997 10.0062ZM793.418 0.599997C776.837 0.599997 764.132 4.64873 755.526 11.4152C746.88 18.2122 742.518 27.6451 742.518 38H746.518C746.518 28.8549 750.331 20.5878 757.998 14.5598C765.704 8.50127 777.449 4.6 793.418 4.6V0.599997ZM742.518 38C742.518 48.3656 746.396 55.593 752.279 60.6876C758.069 65.7021 765.681 68.549 773.026 70.5133C776.715 71.4998 780.393 72.2775 783.793 72.9858C787.218 73.6994 790.325 74.336 792.976 75.0519C795.657 75.7758 797.664 76.5296 798.971 77.3929C800.218 78.2166 800.568 78.9485 800.568 79.7H804.568C804.568 77.1515 803.104 75.3287 801.176 74.0553C799.308 72.8216 796.781 71.9359 794.019 71.1902C791.228 70.4367 787.986 69.7736 784.609 69.0699C781.205 68.3608 777.627 67.6033 774.06 66.6492C766.892 64.7322 759.992 62.076 754.898 57.6639C749.896 53.332 746.518 47.2094 746.518 38H742.518ZM800.568 79.7C800.568 80.2482 800.438 80.6385 800.213 80.9588C799.975 81.2965 799.532 81.6958 798.688 82.0776C796.934 82.8707 793.876 83.4 788.918 83.4V87.4C794.01 87.4 797.777 86.8793 800.336 85.7224C801.647 85.1292 802.733 84.3285 803.484 83.26C804.248 82.174 804.568 80.9518 804.568 79.7H800.568ZM788.918 83.4C777.74 83.4 764.89 79.7535 755.285 74.0781L753.251 77.5219C763.446 83.5465 776.996 87.4 788.918 87.4V83.4ZM752.439 74.9917L741.039 100.792L744.697 102.408L756.097 76.6083L752.439 74.9917ZM741.821 103.304C752.726 110.003 770.82 114.4 788.618 114.4V110.4C771.316 110.4 754.01 106.097 743.915 99.8958L741.821 103.304Z" fill="#FECB46"/>
</svg>
