<svg width="850" height="115" viewBox="0 0 850 115" fill="none" xmlns="http://www.w3.org/2000/svg">
<path d="M93.15 110L91.2837 110.719L91.7772 112H93.15V110ZM129.75 110V112H132.807L131.583 109.199L129.75 110ZM83.85 4.99999L85.6826 4.1989L85.1585 2.99999H83.85V4.99999ZM49.05 4.99999V2.99999H47.7415L47.2174 4.1989L49.05 4.99999ZM3.15 110L1.31744 109.199L0.0929692 112H3.15V110ZM39.15 110V112H40.5228L41.0163 110.719L39.15 110ZM46.2 91.7V89.7H44.8272L44.3337 90.981L46.2 91.7ZM86.1 91.7L87.9663 90.981L87.4728 89.7H86.1V91.7ZM55.95 66.2L54.0844 65.4792L53.0332 68.2H55.95V66.2ZM66.15 39.8L68.0156 39.0792L66.15 34.2506L64.2844 39.0792L66.15 39.8ZM76.35 66.2V68.2H79.2668L78.2156 65.4792L76.35 66.2ZM93.15 112H129.75V108H93.15V112ZM131.583 109.199L85.6826 4.1989L82.0175 5.80108L127.917 110.801L131.583 109.199ZM83.85 2.99999H49.05V6.99999H83.85V2.99999ZM47.2174 4.1989L1.31744 109.199L4.98255 110.801L50.8826 5.80108L47.2174 4.1989ZM3.15 112H39.15V108H3.15V112ZM41.0163 110.719L48.0663 92.419L44.3337 90.981L37.2837 109.281L41.0163 110.719ZM46.2 93.7H86.1V89.7H46.2V93.7ZM84.2337 92.419L91.2837 110.719L95.0163 109.281L87.9663 90.981L84.2337 92.419ZM57.8156 66.9208L68.0156 40.5208L64.2844 39.0792L54.0844 65.4792L57.8156 66.9208ZM64.2844 40.5208L74.4844 66.9208L78.2156 65.4792L68.0156 39.0792L64.2844 40.5208ZM76.35 64.2H55.95V68.2H76.35V64.2ZM234.602 4.99999H236.602V2.99999H234.602V4.99999ZM199.802 4.99999V2.99999H197.802V4.99999H199.802ZM167.702 4.99999H169.702V2.99999H167.702V4.99999ZM132.302 4.99999V2.99999H130.302V4.99999H132.302ZM183.452 114.4C199.944 114.4 213.286 109.754 222.512 100.825C231.747 91.8862 236.602 78.9031 236.602 62.75H232.602C232.602 78.0969 228.008 89.9388 219.73 97.9504C211.443 105.971 199.21 110.4 183.452 110.4V114.4ZM236.602 62.75V4.99999H232.602V62.75H236.602ZM234.602 2.99999H199.802V6.99999H234.602V2.99999ZM197.802 4.99999V61.7H201.802V4.99999H197.802ZM197.802 61.7C197.802 69.5295 196.292 74.5078 193.922 77.5026C191.628 80.4011 188.276 81.75 183.752 81.75V85.75C189.129 85.75 193.802 84.0989 197.058 79.9849C200.238 75.9672 201.802 69.9205 201.802 61.7H197.802ZM183.752 81.75C179.229 81.75 175.877 80.4011 173.583 77.5026C171.213 74.5078 169.702 69.5295 169.702 61.7H165.702C165.702 69.9205 167.267 75.9672 170.447 79.9849C173.703 84.0989 178.376 85.75 183.752 85.75V81.75ZM169.702 61.7V4.99999H165.702V61.7H169.702ZM167.702 2.99999H132.302V6.99999H167.702V2.99999ZM130.302 4.99999V62.75H134.302V4.99999H130.302ZM130.302 62.75C130.302 78.9031 135.158 91.8862 144.393 100.825C153.618 109.754 166.96 114.4 183.452 114.4V110.4C167.694 110.4 155.461 105.971 147.175 97.9504C138.897 89.9388 134.302 78.0969 134.302 62.75H130.302ZM250.829 110H248.829V112H250.829V110ZM250.829 4.99999V2.99999H248.829V4.99999H250.829ZM286.229 82.4H284.229V84.4H286.229V82.4ZM286.229 32.6V30.6H284.229V32.6H286.229ZM250.829 112H302.579V108H250.829V112ZM302.579 112C320.496 112 335.811 106.907 346.678 97.4661C357.576 87.999 363.829 74.3051 363.829 57.5H359.829C359.829 73.2449 354.007 85.801 344.055 94.4464C334.073 103.118 319.763 108 302.579 108V112ZM363.829 57.5C363.829 40.6948 357.576 27.001 346.678 17.5339C335.811 8.09337 320.496 2.99999 302.579 2.99999V6.99999C319.763 6.99999 334.073 11.8816 344.055 20.5536C354.007 29.1989 359.829 41.7551 359.829 57.5H363.829ZM302.579 2.99999H250.829V6.99999H302.579V2.99999ZM248.829 4.99999V110H252.829V4.99999H248.829ZM288.229 82.4V32.6H284.229V82.4H288.229ZM286.229 34.6H301.079V30.6H286.229V34.6ZM301.079 34.6C308.112 34.6 313.836 36.6905 317.79 40.4759C321.73 44.2481 324.129 49.9115 324.129 57.5H328.129C328.129 49.0385 325.429 42.2519 320.556 37.5866C315.697 32.9345 308.896 30.6 301.079 30.6V34.6ZM324.129 57.5C324.129 65.0885 321.73 70.7519 317.79 74.5241C313.836 78.3095 308.112 80.4 301.079 80.4V84.4C308.896 84.4 315.697 82.0655 320.556 77.4134C325.429 72.7481 328.129 65.9615 328.129 57.5H324.129ZM301.079 80.4H286.229V84.4H301.079V80.4ZM374.755 110H372.755V112H374.755V110ZM410.155 110V112H412.155V110H410.155ZM410.155 4.99999H412.155V2.99999H410.155V4.99999ZM374.755 4.99999V2.99999H372.755V4.99999H374.755ZM374.755 112H410.155V108H374.755V112ZM412.155 110V4.99999H408.155V110H412.155ZM410.155 2.99999H374.755V6.99999H410.155V2.99999ZM372.755 4.99999V110H376.755V4.99999H372.755ZM461.996 83.3H459.996V85.3H461.996V83.3ZM461.996 69.5V67.5H459.996V69.5H461.996ZM506.396 69.5V71.5H508.396V69.5H506.396ZM506.396 44H508.396V42H506.396V44ZM461.996 44H459.996V46H461.996V44ZM461.996 31.7V29.7H459.996V31.7H461.996ZM512.546 31.7V33.7H514.546V31.7H512.546ZM512.546 4.99999H514.546V2.99999H512.546V4.99999ZM427.196 4.99999V2.99999H425.196V4.99999H427.196ZM427.196 110H425.196V112H427.196V110ZM514.496 110V112H516.496V110H514.496ZM514.496 83.3H516.496V81.3H514.496V83.3ZM463.996 83.3V69.5H459.996V83.3H463.996ZM461.996 71.5H506.396V67.5H461.996V71.5ZM508.396 69.5V44H504.396V69.5H508.396ZM506.396 42H461.996V46H506.396V42ZM463.996 44V31.7H459.996V44H463.996ZM461.996 33.7H512.546V29.7H461.996V33.7ZM514.546 31.7V4.99999H510.546V31.7H514.546ZM512.546 2.99999H427.196V6.99999H512.546V2.99999ZM425.196 4.99999V110H429.196V4.99999H425.196ZM427.196 112H514.496V108H427.196V112ZM516.496 110V83.3H512.496V110H516.496ZM514.496 81.3H461.996V85.3H514.496V81.3ZM597.124 4.99999V2.99999H595.124V4.99999H597.124ZM597.124 52.7L595.59 53.9832L599.124 58.2081V52.7H597.124ZM557.224 4.99999L558.758 3.71678L558.159 2.99999H557.224V4.99999ZM528.124 4.99999V2.99999H526.124V4.99999H528.124ZM528.124 110H526.124V112H528.124V110ZM562.624 110V112H564.624V110H562.624ZM562.624 62.3L564.158 61.0168L560.624 56.7918V62.3H562.624ZM602.524 110L600.99 111.283L601.59 112H602.524V110ZM631.624 110V112H633.624V110H631.624ZM631.624 4.99999H633.624V2.99999H631.624V4.99999ZM595.124 4.99999V52.7H599.124V4.99999H595.124ZM598.658 51.4168L558.758 3.71678L555.69 6.28321L595.59 53.9832L598.658 51.4168ZM557.224 2.99999H528.124V6.99999H557.224V2.99999ZM526.124 4.99999V110H530.124V4.99999H526.124ZM528.124 112H562.624V108H528.124V112ZM564.624 110V62.3H560.624V110H564.624ZM561.09 63.5832L600.99 111.283L604.058 108.717L564.158 61.0168L561.09 63.5832ZM602.524 112H631.624V108H602.524V112ZM633.624 110V4.99999H629.624V110H633.624ZM631.624 2.99999H597.124V6.99999H631.624V2.99999ZM750.081 91.4L751.668 92.6169L752.797 91.1439L751.413 89.9079L750.081 91.4ZM727.731 71.45L729.063 69.9579L727.477 68.5422L726.16 70.2117L727.731 71.45ZM727.731 43.55L726.16 44.7883L727.477 46.4578L729.063 45.0421L727.731 43.55ZM750.081 23.6L751.413 25.092L752.797 23.8561L751.668 22.3831L750.081 23.6ZM702.981 114.4C724.044 114.4 740.878 106.691 751.668 92.6169L748.494 90.1831C738.584 103.109 723.018 110.4 702.981 110.4V114.4ZM751.413 89.9079L729.063 69.9579L726.399 72.9421L748.749 92.8921L751.413 89.9079ZM726.16 70.2117C720.284 77.6651 713.465 81.75 704.781 81.75V85.75C714.996 85.75 722.878 80.8349 729.301 72.6883L726.16 70.2117ZM704.781 81.75C697.911 81.75 692.31 79.3782 688.421 75.2689C684.523 71.1503 682.181 65.1126 682.181 57.5H678.181C678.181 65.9374 680.789 73.0247 685.516 78.0186C690.251 83.0218 696.951 85.75 704.781 85.75V81.75ZM682.181 57.5C682.181 49.8874 684.523 43.8497 688.421 39.7311C692.31 35.6218 697.911 33.25 704.781 33.25V29.25C696.951 29.25 690.251 31.9781 685.516 36.9814C680.789 41.9753 678.181 49.0626 678.181 57.5H682.181ZM704.781 33.25C713.465 33.25 720.284 37.3349 726.16 44.7883L729.301 42.3117C722.878 34.1651 714.996 29.25 704.781 29.25V33.25ZM729.063 45.0421L751.413 25.092L748.749 22.1079L726.399 42.0579L729.063 45.0421ZM751.668 22.3831C740.878 8.30914 724.044 0.599997 702.981 0.599997V4.6C723.018 4.6 738.584 11.8909 748.494 24.8169L751.668 22.3831ZM702.981 0.599997C668.262 0.599997 642.481 24.0142 642.481 57.5H646.481C646.481 26.4858 670.199 4.6 702.981 4.6V0.599997ZM642.481 57.5C642.481 90.9858 668.262 114.4 702.981 114.4V110.4C670.199 110.4 646.481 88.5142 646.481 57.5H642.481ZM795.102 83.3H793.102V85.3H795.102V83.3ZM795.102 69.5V67.5H793.102V69.5H795.102ZM839.502 69.5V71.5H841.502V69.5H839.502ZM839.502 44H841.502V42H839.502V44ZM795.102 44H793.102V46H795.102V44ZM795.102 31.7V29.7H793.102V31.7H795.102ZM845.652 31.7V33.7H847.652V31.7H845.652ZM845.652 4.99999H847.652V2.99999H845.652V4.99999ZM760.302 4.99999V2.99999H758.302V4.99999H760.302ZM760.302 110H758.302V112H760.302V110ZM847.602 110V112H849.602V110H847.602ZM847.602 83.3H849.602V81.3H847.602V83.3ZM797.102 83.3V69.5H793.102V83.3H797.102ZM795.102 71.5H839.502V67.5H795.102V71.5ZM841.502 69.5V44H837.502V69.5H841.502ZM839.502 42H795.102V46H839.502V42ZM797.102 44V31.7H793.102V44H797.102ZM795.102 33.7H845.652V29.7H795.102V33.7ZM847.652 31.7V4.99999H843.652V31.7H847.652ZM845.652 2.99999H760.302V6.99999H845.652V2.99999ZM758.302 4.99999V110H762.302V4.99999H758.302ZM760.302 112H847.602V108H760.302V112ZM849.602 110V83.3H845.602V110H849.602ZM847.602 81.3H795.102V85.3H847.602V81.3Z" fill="#FECB46"/>
</svg>
