<svg width="87" height="85" viewBox="0 0 87 85" fill="none" xmlns="http://www.w3.org/2000/svg">
<path d="M26.2157 22.11C27.4957 22.41 28.4857 23.03 29.1857 23.97C29.9057 24.89 30.2657 25.96 30.2657 27.18C30.2657 29.04 29.6457 30.48 28.4057 31.5C27.1857 32.5 25.4257 33 23.1257 33H11.9957V11.76H22.8257C24.9857 11.76 26.6857 12.23 27.9257 13.17C29.1657 14.11 29.7857 15.48 29.7857 17.28C29.7857 18.52 29.4557 19.57 28.7957 20.43C28.1557 21.27 27.2957 21.83 26.2157 22.11ZM18.6557 20.04H21.2357C21.8357 20.04 22.2757 19.92 22.5557 19.68C22.8557 19.44 23.0057 19.07 23.0057 18.57C23.0057 18.05 22.8557 17.67 22.5557 17.43C22.2757 17.17 21.8357 17.04 21.2357 17.04H18.6557V20.04ZM21.6857 27.66C22.2857 27.66 22.7257 27.55 23.0057 27.33C23.3057 27.09 23.4557 26.71 23.4557 26.19C23.4557 25.17 22.8657 24.66 21.6857 24.66H18.6557V27.66H21.6857ZM46.1235 29.79H39.0435L37.9935 33H31.0035L38.7735 11.76H46.4535L54.1935 33H47.1735L46.1235 29.79ZM44.5035 24.78L42.5835 18.87L40.6635 24.78H44.5035ZM64.5567 11.76C66.7767 11.76 68.7167 12.21 70.3767 13.11C72.0567 14.01 73.3467 15.26 74.2467 16.86C75.1467 18.46 75.5967 20.28 75.5967 22.32C75.5967 24.34 75.1467 26.16 74.2467 27.78C73.3467 29.4 72.0567 30.68 70.3767 31.62C68.7167 32.54 66.7767 33 64.5567 33H55.7067V11.76H64.5567ZM63.9567 27.06C65.4567 27.06 66.6467 26.65 67.5267 25.83C68.4067 25.01 68.8467 23.84 68.8467 22.32C68.8467 20.8 68.4067 19.63 67.5267 18.81C66.6467 17.99 65.4567 17.58 63.9567 17.58H62.3667V27.06H63.9567Z" fill="#FECB46"/>
<path d="M25.4478 62.3568H18.3678L17.3178 65.5668H10.3278L18.0978 44.3268H25.7778L33.5178 65.5668H26.4978L25.4478 62.3568ZM23.8278 57.3468L21.9078 51.4368L19.9878 57.3468H23.8278ZM43.881 44.3268C46.101 44.3268 48.041 44.7768 49.701 45.6768C51.381 46.5768 52.671 47.8268 53.571 49.4268C54.471 51.0268 54.921 52.8468 54.921 54.8868C54.921 56.9068 54.471 58.7268 53.571 60.3468C52.671 61.9668 51.381 63.2468 49.701 64.1868C48.041 65.1068 46.101 65.5668 43.881 65.5668H35.031V44.3268H43.881ZM43.281 59.6268C44.781 59.6268 45.971 59.2168 46.851 58.3968C47.731 57.5768 48.171 56.4068 48.171 54.8868C48.171 53.3668 47.731 52.1968 46.851 51.3768C45.971 50.5568 44.781 50.1468 43.281 50.1468H41.691V59.6268H43.281ZM65.6359 65.7768C63.0959 65.7768 60.9959 65.1868 59.3359 64.0068C57.6959 62.8068 56.8059 61.0568 56.6659 58.7568H63.7459C63.8459 59.9768 64.3859 60.5868 65.3659 60.5868C65.7259 60.5868 66.0259 60.5068 66.2659 60.3468C66.5259 60.1668 66.6559 59.8968 66.6559 59.5368C66.6559 59.0368 66.3859 58.6368 65.8459 58.3368C65.3059 58.0168 64.4659 57.6568 63.3259 57.2568C61.9659 56.7768 60.8359 56.3068 59.9359 55.8468C59.0559 55.3868 58.2959 54.7168 57.6559 53.8368C57.0159 52.9568 56.7059 51.8268 56.7259 50.4468C56.7259 49.0668 57.0759 47.8968 57.7759 46.9368C58.4959 45.9568 59.4659 45.2168 60.6859 44.7168C61.9259 44.2168 63.3159 43.9668 64.8559 43.9668C67.4559 43.9668 69.5159 44.5668 71.0359 45.7668C72.5759 46.9668 73.3859 48.6568 73.4659 50.8368H66.2959C66.2759 50.2368 66.1259 49.8068 65.8459 49.5468C65.5659 49.2868 65.2259 49.1568 64.8259 49.1568C64.5459 49.1568 64.3159 49.2568 64.1359 49.4568C63.9559 49.6368 63.8659 49.8968 63.8659 50.2368C63.8659 50.7168 64.1259 51.1168 64.6459 51.4368C65.1859 51.7368 66.0359 52.1068 67.1959 52.5468C68.5359 53.0468 69.6359 53.5268 70.4959 53.9868C71.3759 54.4468 72.1359 55.0868 72.7759 55.9068C73.4159 56.7268 73.7359 57.7568 73.7359 58.9968C73.7359 60.2968 73.4159 61.4668 72.7759 62.5068C72.1359 63.5268 71.2059 64.3268 69.9859 64.9068C68.7659 65.4868 67.3159 65.7768 65.6359 65.7768Z" fill="#FECB46"/>
<rect x="1" y="2.72192" width="85" height="74.0668" stroke="#FECB46" stroke-width="2"/>
</svg>
