<svg width="985" height="115" viewBox="0 0 985 115" fill="none" xmlns="http://www.w3.org/2000/svg">
<path d="M107.95 91.4L109.537 92.6169L110.666 91.1439L109.282 89.9079L107.95 91.4ZM85.6 71.45L86.9318 69.9579L85.3458 68.5422L84.0295 70.2117L85.6 71.45ZM85.6 43.55L84.0295 44.7883L85.3458 46.4578L86.9318 45.0421L85.6 43.55ZM107.95 23.6L109.282 25.092L110.666 23.8561L109.537 22.3831L107.95 23.6ZM60.85 114.4C81.9134 114.4 98.7472 106.691 109.537 92.6169L106.363 90.1831C96.4529 103.109 80.8867 110.4 60.85 110.4V114.4ZM109.282 89.9079L86.9318 69.9579L84.2682 72.9421L106.618 92.8921L109.282 89.9079ZM84.0295 70.2117C78.1528 77.6651 71.3346 81.75 62.65 81.75V85.75C72.8654 85.75 80.7473 80.8349 87.1705 72.6883L84.0295 70.2117ZM62.65 81.75C55.7798 81.75 50.1794 79.3782 46.29 75.2689C42.3917 71.1503 40.05 65.1126 40.05 57.5H36.05C36.05 65.9374 38.6583 73.0247 43.385 78.0186C48.1206 83.0218 54.8202 85.75 62.65 85.75V81.75ZM40.05 57.5C40.05 49.8874 42.3917 43.8497 46.29 39.7311C50.1794 35.6218 55.7798 33.25 62.65 33.25V29.25C54.8202 29.25 48.1206 31.9781 43.385 36.9814C38.6583 41.9753 36.05 49.0626 36.05 57.5H40.05ZM62.65 33.25C71.3346 33.25 78.1528 37.3349 84.0295 44.7883L87.1705 42.3117C80.7473 34.1651 72.8654 29.25 62.65 29.25V33.25ZM86.9318 45.0421L109.282 25.092L106.618 22.1079L84.2682 42.0579L86.9318 45.0421ZM109.537 22.3831C98.7472 8.30914 81.9134 0.599997 60.85 0.599997V4.6C80.8867 4.6 96.4529 11.8909 106.363 24.8169L109.537 22.3831ZM60.85 0.599997C26.1314 0.599997 0.35 24.0142 0.35 57.5H4.35C4.35 26.4858 28.0686 4.6 60.85 4.6V0.599997ZM0.35 57.5C0.35 90.9858 26.1314 114.4 60.85 114.4V110.4C28.0686 110.4 4.35 88.5142 4.35 57.5H0.35ZM195.306 110L193.44 110.719L193.933 112H195.306V110ZM231.906 110V112H234.963L233.739 109.199L231.906 110ZM186.006 4.99999L187.839 4.1989L187.315 2.99999H186.006V4.99999ZM151.206 4.99999V2.99999H149.898L149.374 4.1989L151.206 4.99999ZM105.306 110L103.474 109.199L102.249 112H105.306V110ZM141.306 110V112H142.679L143.173 110.719L141.306 110ZM148.356 91.7V89.7H146.983L146.49 90.981L148.356 91.7ZM188.256 91.7L190.123 90.981L189.629 89.7H188.256V91.7ZM158.106 66.2L156.241 65.4792L155.189 68.2H158.106V66.2ZM168.306 39.8L170.172 39.0792L168.306 34.2506L166.441 39.0792L168.306 39.8ZM178.506 66.2V68.2H181.423L180.372 65.4792L178.506 66.2ZM195.306 112H231.906V108H195.306V112ZM233.739 109.199L187.839 4.1989L184.174 5.80108L230.074 110.801L233.739 109.199ZM186.006 2.99999H151.206V6.99999H186.006V2.99999ZM149.374 4.1989L103.474 109.199L107.139 110.801L153.039 5.80108L149.374 4.1989ZM105.306 112H141.306V108H105.306V112ZM143.173 110.719L150.223 92.419L146.49 90.981L139.44 109.281L143.173 110.719ZM148.356 93.7H188.256V89.7H148.356V93.7ZM186.39 92.419L193.44 110.719L197.173 109.281L190.123 90.981L186.39 92.419ZM159.972 66.9208L170.172 40.5208L166.441 39.0792L156.241 65.4792L159.972 66.9208ZM166.441 40.5208L176.641 66.9208L180.372 65.4792L170.172 39.0792L166.441 40.5208ZM178.506 64.2H158.106V68.2H178.506V64.2ZM363.556 110V112H365.562L365.556 109.994L363.556 110ZM363.256 4.99999L365.256 4.99428L365.25 2.99999H363.256V4.99999ZM334.156 4.99999V2.99999H333.019L332.437 3.97711L334.156 4.99999ZM300.856 60.95L299.149 61.9931L300.879 64.8221L302.574 61.9729L300.856 60.95ZM266.656 4.99999L268.362 3.95691L267.777 2.99999H266.656V4.99999ZM237.556 4.99999V2.99999H235.556V4.99999H237.556ZM237.556 110H235.556V112H237.556V110ZM269.806 110V112H271.806V110H269.806ZM269.806 63.8L271.505 62.7456L267.806 56.7826V63.8H269.806ZM292.606 100.55L290.906 101.604L291.493 102.55H292.606V100.55ZM308.206 100.55V102.55H309.344L309.926 101.571L308.206 100.55ZM331.006 62.15L333.006 62.1375L332.961 54.9402L329.286 61.1289L331.006 62.15ZM331.306 110L329.306 110.013L329.318 112H331.306V110ZM365.556 109.994L365.256 4.99428L361.256 5.00571L361.556 110.006L365.556 109.994ZM363.256 2.99999H334.156V6.99999H363.256V2.99999ZM332.437 3.97711L299.137 59.9271L302.574 61.9729L335.874 6.02288L332.437 3.97711ZM302.562 59.9069L268.362 3.95691L264.949 6.04308L299.149 61.9931L302.562 59.9069ZM266.656 2.99999H237.556V6.99999H266.656V2.99999ZM235.556 4.99999V110H239.556V4.99999H235.556ZM237.556 112H269.806V108H237.556V112ZM271.806 110V63.8H267.806V110H271.806ZM268.106 64.8544L290.906 101.604L294.305 99.4956L271.505 62.7456L268.106 64.8544ZM292.606 102.55H308.206V98.55H292.606V102.55ZM309.926 101.571L332.726 63.1711L329.286 61.1289L306.486 99.5289L309.926 101.571ZM329.006 62.1625L329.306 110.013L333.306 109.987L333.006 62.1375L329.006 62.1625ZM331.306 112H363.556V108H331.306V112ZM380.671 4.99999V2.99999H378.671V4.99999H380.671ZM380.671 110H378.671V112H380.671V110ZM416.071 110V112H418.071V110H416.071ZM416.071 84.2V82.2H414.071V84.2H416.071ZM416.071 56.9H414.071V58.9H416.071V56.9ZM416.071 32.3V30.3H414.071V32.3H416.071ZM431.221 2.99999H380.671V6.99999H431.221V2.99999ZM378.671 4.99999V110H382.671V4.99999H378.671ZM380.671 112H416.071V108H380.671V112ZM418.071 110V84.2H414.071V110H418.071ZM416.071 86.2H431.221V82.2H416.071V86.2ZM431.221 86.2C446.176 86.2 458.632 82.289 467.389 75.0543C476.187 67.7855 481.071 57.3038 481.071 44.6H477.071C477.071 56.1962 472.655 65.5145 464.841 71.9706C456.985 78.461 445.516 82.2 431.221 82.2V86.2ZM481.071 44.6C481.071 31.8962 476.187 21.4145 467.389 14.1456C458.632 6.91104 446.176 2.99999 431.221 2.99999V6.99999C445.516 6.99999 456.985 10.7389 464.841 17.2293C472.655 23.6855 477.071 33.0038 477.071 44.6H481.071ZM428.971 54.9H416.071V58.9H428.971V54.9ZM418.071 56.9V32.3H414.071V56.9H418.071ZM416.071 34.3H428.971V30.3H416.071V34.3ZM428.971 34.3C433.558 34.3 436.61 35.3957 438.498 37.0754C440.348 38.7217 441.371 41.1894 441.371 44.6H445.371C445.371 40.3606 444.069 36.6783 441.157 34.0871C438.282 31.5293 434.134 30.3 428.971 30.3V34.3ZM441.371 44.6C441.371 48.0106 440.348 50.4783 438.498 52.1246C436.61 53.8043 433.558 54.9 428.971 54.9V58.9C434.134 58.9 438.282 57.6707 441.157 55.1129C444.069 52.5217 445.371 48.8394 445.371 44.6H441.371ZM564.007 110L562.141 110.719L562.635 112H564.007V110ZM600.607 110V112H603.664L602.44 109.199L600.607 110ZM554.707 4.99999L556.54 4.1989L556.016 2.99999H554.707V4.99999ZM519.907 4.99999V2.99999H518.599L518.075 4.1989L519.907 4.99999ZM474.007 110L472.175 109.199L470.95 112H474.007V110ZM510.007 110V112H511.38L511.874 110.719L510.007 110ZM517.057 91.7V89.7H515.685L515.191 90.981L517.057 91.7ZM556.957 91.7L558.824 90.981L558.33 89.7H556.957V91.7ZM526.807 66.2L524.942 65.4792L523.891 68.2H526.807V66.2ZM537.007 39.8L538.873 39.0792L537.007 34.2506L535.142 39.0792L537.007 39.8ZM547.207 66.2V68.2H550.124L549.073 65.4792L547.207 66.2ZM564.007 112H600.607V108H564.007V112ZM602.44 109.199L556.54 4.1989L552.875 5.80108L598.775 110.801L602.44 109.199ZM554.707 2.99999H519.907V6.99999H554.707V2.99999ZM518.075 4.1989L472.175 109.199L475.84 110.801L521.74 5.80108L518.075 4.1989ZM474.007 112H510.007V108H474.007V112ZM511.874 110.719L518.924 92.419L515.191 90.981L508.141 109.281L511.874 110.719ZM517.057 93.7H556.957V89.7H517.057V93.7ZM555.091 92.419L562.141 110.719L565.874 109.281L558.824 90.981L555.091 92.419ZM528.673 66.9208L538.873 40.5208L535.142 39.0792L524.942 65.4792L528.673 66.9208ZM535.142 40.5208L545.342 66.9208L549.073 65.4792L538.873 39.0792L535.142 40.5208ZM547.207 64.2H526.807V68.2H547.207V64.2ZM606.257 110H604.257V112H606.257V110ZM641.657 110V112H643.657V110H641.657ZM641.657 4.99999H643.657V2.99999H641.657V4.99999ZM606.257 4.99999V2.99999H604.257V4.99999H606.257ZM606.257 112H641.657V108H606.257V112ZM643.657 110V4.99999H639.657V110H643.657ZM641.657 2.99999H606.257V6.99999H641.657V2.99999ZM604.257 4.99999V110H608.257V4.99999H604.257ZM728.148 81.2L728.913 83.048L730.148 82.5369V81.2H728.148ZM739.248 42.8L737.734 44.1065L739.054 45.6364L740.57 44.3008L739.248 42.8ZM761.898 22.85L763.22 24.3508L764.666 23.0777L763.448 21.5855L761.898 22.85ZM758.898 99.05L760.026 100.702L760.898 100.107V99.05H758.898ZM758.898 54.65H760.898V52.65H758.898V54.65ZM728.148 54.65V52.65H726.148V54.65H728.148ZM727.384 79.352C723.29 81.046 719.351 81.75 715.248 81.75V85.75C719.846 85.75 724.307 84.954 728.913 83.048L727.384 79.352ZM715.248 81.75C708.153 81.75 702.438 79.3031 698.491 75.153C694.535 70.9929 692.198 64.9543 692.198 57.5H688.198C688.198 65.7957 690.812 72.8821 695.593 77.9095C700.384 82.9469 707.193 85.75 715.248 85.75V81.75ZM692.198 57.5C692.198 49.8091 694.541 43.7868 698.53 39.6963C702.514 35.6111 708.337 33.25 715.698 33.25V29.25C707.459 29.25 700.533 31.9139 695.667 36.9036C690.806 41.8882 688.198 48.9909 688.198 57.5H692.198ZM715.698 33.25C724.331 33.25 731.454 36.8273 737.734 44.1065L740.763 41.4935C733.843 33.4727 725.666 29.25 715.698 29.25V33.25ZM740.57 44.3008L763.22 24.3508L760.577 21.3492L737.927 41.2992L740.57 44.3008ZM763.448 21.5855C752.344 7.97902 735.071 0.599997 713.898 0.599997V4.6C734.126 4.6 750.153 11.621 760.349 24.1145L763.448 21.5855ZM713.898 0.599997C696.136 0.599997 680.783 6.4098 669.849 16.4855C658.904 26.572 652.498 40.8373 652.498 57.5H656.498C656.498 41.9127 662.467 28.728 672.56 19.427C682.664 10.1152 697.011 4.6 713.898 4.6V0.599997ZM652.498 57.5C652.498 90.9891 678.283 114.4 713.148 114.4V110.4C680.214 110.4 656.498 88.5109 656.498 57.5H652.498ZM713.148 114.4C728.936 114.4 746.894 109.663 760.026 100.702L757.771 97.398C745.403 105.837 728.261 110.4 713.148 110.4V114.4ZM760.898 99.05V54.65H756.898V99.05H760.898ZM758.898 52.65H728.148V56.65H758.898V52.65ZM726.148 54.65V81.2H730.148V54.65H726.148ZM842.982 4.99999V2.99999H840.982V4.99999H842.982ZM842.982 52.7L841.448 53.9832L844.982 58.2081V52.7H842.982ZM803.082 4.99999L804.616 3.71678L804.016 2.99999H803.082V4.99999ZM773.982 4.99999V2.99999H771.982V4.99999H773.982ZM773.982 110H771.982V112H773.982V110ZM808.482 110V112H810.482V110H808.482ZM808.482 62.3L810.016 61.0168L806.482 56.7918V62.3H808.482ZM848.382 110L846.848 111.283L847.447 112H848.382V110ZM877.482 110V112H879.482V110H877.482ZM877.482 4.99999H879.482V2.99999H877.482V4.99999ZM840.982 4.99999V52.7H844.982V4.99999H840.982ZM844.516 51.4168L804.616 3.71678L801.548 6.28321L841.448 53.9832L844.516 51.4168ZM803.082 2.99999H773.982V6.99999H803.082V2.99999ZM771.982 4.99999V110H775.982V4.99999H771.982ZM773.982 112H808.482V108H773.982V112ZM810.482 110V62.3H806.482V110H810.482ZM806.948 63.5832L846.848 111.283L849.916 108.717L810.016 61.0168L806.948 63.5832ZM848.382 112H877.482V108H848.382V112ZM879.482 110V4.99999H875.482V110H879.482ZM877.482 2.99999H842.982V6.99999H877.482V2.99999ZM967.438 37.4L966.534 39.1837L968.458 40.1598L969.285 38.1669L967.438 37.4ZM978.088 11.75L979.935 12.5169L980.617 10.8762L979.068 10.0062L978.088 11.75ZM899.338 75.8L900.356 74.0781L898.418 72.9334L897.509 74.9917L899.338 75.8ZM887.938 101.6L886.109 100.792L885.403 102.39L886.891 103.304L887.938 101.6ZM933.688 114.4C950.278 114.4 962.982 110.272 971.585 103.469C980.221 96.6391 984.588 87.211 984.588 77H980.588C980.588 85.989 976.78 94.2609 969.104 100.331C961.395 106.428 949.649 110.4 933.688 110.4V114.4ZM984.588 77C984.588 66.7388 980.703 59.584 974.818 54.5504C969.027 49.5971 961.414 46.7945 954.068 44.8773C950.379 43.9144 946.7 43.1616 943.298 42.4812C939.87 41.7957 936.761 41.1904 934.104 40.5108C931.418 39.8237 929.405 39.1094 928.094 38.2885C926.834 37.4988 926.538 36.8294 926.538 36.2H922.538C922.538 38.7206 924.057 40.4793 925.971 41.6783C927.835 42.8461 930.357 43.681 933.113 44.386C935.899 45.0987 939.138 45.7285 942.513 46.4035C945.914 47.0837 949.492 47.8169 953.058 48.7477C960.225 50.618 967.125 53.2342 972.218 57.5902C977.217 61.866 980.588 67.9112 980.588 77H984.588ZM926.538 36.2C926.538 35.1552 926.945 34.1527 928.468 33.2903C930.143 32.3416 933.145 31.6 938.188 31.6V27.6C932.882 27.6 929.059 28.3583 926.496 29.8097C923.782 31.3473 922.538 33.6448 922.538 36.2H926.538ZM938.188 31.6C946.96 31.6 956.4 34.0437 966.534 39.1837L968.343 35.6163C957.776 30.2563 947.717 27.6 938.188 27.6V31.6ZM969.285 38.1669L979.935 12.5169L976.241 10.9831L965.591 36.6331L969.285 38.1669ZM979.068 10.0062C967.74 3.64398 952.828 0.599997 938.488 0.599997V4.6C952.349 4.6 966.537 7.55601 977.109 13.4938L979.068 10.0062ZM938.488 0.599997C921.908 0.599997 909.202 4.64873 900.596 11.4152C891.951 18.2122 887.588 27.6451 887.588 38H891.588C891.588 28.8549 895.401 20.5878 903.068 14.5598C910.774 8.50127 922.519 4.6 938.488 4.6V0.599997ZM887.588 38C887.588 48.3656 891.467 55.593 897.349 60.6876C903.139 65.7021 910.752 68.549 918.097 70.5133C921.785 71.4998 925.463 72.2775 928.863 72.9858C932.288 73.6994 935.395 74.336 938.047 75.0519C940.727 75.7758 942.735 76.5296 944.042 77.3929C945.289 78.2166 945.638 78.9485 945.638 79.7H949.638C949.638 77.1515 948.174 75.3287 946.246 74.0553C944.379 72.8216 941.851 71.9359 939.089 71.1902C936.299 70.4367 933.056 69.7736 929.679 69.0699C926.276 68.3608 922.698 67.6033 919.13 66.6492C911.962 64.7322 905.062 62.076 899.968 57.6639C894.966 53.332 891.588 47.2094 891.588 38H887.588ZM945.638 79.7C945.638 80.2482 945.508 80.6385 945.283 80.9588C945.045 81.2965 944.603 81.6958 943.758 82.0776C942.004 82.8707 938.946 83.4 933.988 83.4V87.4C939.08 87.4 942.847 86.8793 945.406 85.7224C946.718 85.1292 947.803 84.3285 948.555 83.26C949.318 82.174 949.638 80.9518 949.638 79.7H945.638ZM933.988 83.4C922.811 83.4 909.96 79.7535 900.356 74.0781L898.321 77.5219C908.516 83.5465 922.066 87.4 933.988 87.4V83.4ZM897.509 74.9917L886.109 100.792L889.768 102.408L901.168 76.6083L897.509 74.9917ZM886.891 103.304C897.796 110.003 915.891 114.4 933.688 114.4V110.4C916.386 110.4 899.08 106.097 888.985 99.8958L886.891 103.304Z" fill="#FECB46"/>
</svg>
