<svg width="1038" height="115" viewBox="0 0 1038 115" fill="none" xmlns="http://www.w3.org/2000/svg">
<path d="M107.95 91.4L109.537 92.6169L110.666 91.1439L109.282 89.9079L107.95 91.4ZM85.6 71.45L86.9318 69.9579L85.3458 68.5422L84.0295 70.2117L85.6 71.45ZM85.6 43.55L84.0295 44.7883L85.3458 46.4578L86.9318 45.0421L85.6 43.55ZM107.95 23.6L109.282 25.092L110.666 23.8561L109.537 22.3831L107.95 23.6ZM60.85 114.4C81.9134 114.4 98.7472 106.691 109.537 92.6169L106.363 90.1831C96.4529 103.109 80.8867 110.4 60.85 110.4V114.4ZM109.282 89.9079L86.9318 69.9579L84.2682 72.9421L106.618 92.8921L109.282 89.9079ZM84.0295 70.2117C78.1528 77.6651 71.3346 81.75 62.65 81.75V85.75C72.8654 85.75 80.7473 80.8349 87.1705 72.6883L84.0295 70.2117ZM62.65 81.75C55.7798 81.75 50.1794 79.3782 46.29 75.2689C42.3917 71.1503 40.05 65.1126 40.05 57.5H36.05C36.05 65.9374 38.6583 73.0247 43.385 78.0186C48.1206 83.0218 54.8202 85.75 62.65 85.75V81.75ZM40.05 57.5C40.05 49.8874 42.3917 43.8497 46.29 39.7311C50.1794 35.6218 55.7798 33.25 62.65 33.25V29.25C54.8202 29.25 48.1206 31.9781 43.385 36.9814C38.6583 41.9753 36.05 49.0626 36.05 57.5H40.05ZM62.65 33.25C71.3346 33.25 78.1528 37.3349 84.0295 44.7883L87.1705 42.3117C80.7473 34.1651 72.8654 29.25 62.65 29.25V33.25ZM86.9318 45.0421L109.282 25.092L106.618 22.1079L84.2682 42.0579L86.9318 45.0421ZM109.537 22.3831C98.7472 8.30914 81.9134 0.599997 60.85 0.599997V4.6C80.8867 4.6 96.4529 11.8909 106.363 24.8169L109.537 22.3831ZM60.85 0.599997C26.1314 0.599997 0.35 24.0142 0.35 57.5H4.35C4.35 26.4858 28.0686 4.6 60.85 4.6V0.599997ZM0.35 57.5C0.35 90.9858 26.1314 114.4 60.85 114.4V110.4C28.0686 110.4 4.35 88.5142 4.35 57.5H0.35ZM171.024 114.4C206.179 114.4 232.274 90.548 232.274 57.5H228.274C228.274 88.052 204.268 110.4 171.024 110.4V114.4ZM232.274 57.5C232.274 24.452 206.179 0.599997 171.024 0.599997V4.6C204.268 4.6 228.274 26.948 228.274 57.5H232.274ZM171.024 0.599997C135.868 0.599997 109.774 24.452 109.774 57.5H113.774C113.774 26.948 137.779 4.6 171.024 4.6V0.599997ZM109.774 57.5C109.774 90.548 135.868 114.4 171.024 114.4V110.4C137.779 110.4 113.774 88.052 113.774 57.5H109.774ZM171.024 81.75C165.02 81.75 159.669 79.4811 155.811 75.385C151.952 71.2877 149.474 65.2391 149.474 57.5H145.474C145.474 66.1109 148.246 73.1873 152.899 78.1275C157.553 83.0689 163.978 85.75 171.024 85.75V81.75ZM149.474 57.5C149.474 49.7609 151.952 43.7123 155.811 39.615C159.669 35.5188 165.02 33.25 171.024 33.25V29.25C163.978 29.25 157.553 31.9311 152.899 36.8725C148.246 41.8127 145.474 48.8891 145.474 57.5H149.474ZM171.024 33.25C177.028 33.25 182.378 35.5188 186.237 39.615C190.096 43.7123 192.574 49.7609 192.574 57.5H196.574C196.574 48.8891 193.802 41.8127 189.148 36.8725C184.494 31.9311 178.07 29.25 171.024 29.25V33.25ZM192.574 57.5C192.574 65.2391 190.096 71.2877 186.237 75.385C182.378 79.4811 177.028 81.75 171.024 81.75V85.75C178.07 85.75 184.494 83.0689 189.148 78.1275C193.802 73.1873 196.574 66.1109 196.574 57.5H192.574ZM312.122 4.99999V2.99999H310.122V4.99999H312.122ZM312.122 52.7L310.588 53.9832L314.122 58.2081V52.7H312.122ZM272.222 4.99999L273.756 3.71678L273.157 2.99999H272.222V4.99999ZM243.122 4.99999V2.99999H241.122V4.99999H243.122ZM243.122 110H241.122V112H243.122V110ZM277.622 110V112H279.622V110H277.622ZM277.622 62.3L279.156 61.0168L275.622 56.7918V62.3H277.622ZM317.522 110L315.988 111.283L316.588 112H317.522V110ZM346.622 110V112H348.622V110H346.622ZM346.622 4.99999H348.622V2.99999H346.622V4.99999ZM310.122 4.99999V52.7H314.122V4.99999H310.122ZM313.656 51.4168L273.756 3.71678L270.688 6.28321L310.588 53.9832L313.656 51.4168ZM272.222 2.99999H243.122V6.99999H272.222V2.99999ZM241.122 4.99999V110H245.122V4.99999H241.122ZM243.122 112H277.622V108H243.122V112ZM279.622 110V62.3H275.622V110H279.622ZM276.088 63.5832L315.988 111.283L319.056 108.717L279.156 61.0168L276.088 63.5832ZM317.522 112H346.622V108H317.522V112ZM348.622 110V4.99999H344.622V110H348.622ZM346.622 2.99999H312.122V6.99999H346.622V2.99999ZM386.479 110H384.479V112H386.479V110ZM421.879 110V112H423.879V110H421.879ZM421.879 32.45V30.45H419.879V32.45H421.879ZM452.629 32.45V34.45H454.629V32.45H452.629ZM452.629 4.99999H454.629V2.99999H452.629V4.99999ZM355.729 4.99999V2.99999H353.729V4.99999H355.729ZM355.729 32.45H353.729V34.45H355.729V32.45ZM386.479 32.45H388.479V30.45H386.479V32.45ZM386.479 112H421.879V108H386.479V112ZM423.879 110V32.45H419.879V110H423.879ZM421.879 34.45H452.629V30.45H421.879V34.45ZM454.629 32.45V4.99999H450.629V32.45H454.629ZM452.629 2.99999H355.729V6.99999H452.629V2.99999ZM353.729 4.99999V32.45H357.729V4.99999H353.729ZM355.729 34.45H386.479V30.45H355.729V34.45ZM384.479 32.45V110H388.479V32.45H384.479ZM535.15 110L533.284 110.719L533.777 112H535.15V110ZM571.75 110V112H574.807L573.583 109.199L571.75 110ZM525.85 4.99999L527.683 4.1989L527.158 2.99999H525.85V4.99999ZM491.05 4.99999V2.99999H489.742L489.217 4.1989L491.05 4.99999ZM445.15 110L443.317 109.199L442.093 112H445.15V110ZM481.15 110V112H482.523L483.016 110.719L481.15 110ZM488.2 91.7V89.7H486.827L486.334 90.981L488.2 91.7ZM528.1 91.7L529.966 90.981L529.473 89.7H528.1V91.7ZM497.95 66.2L496.084 65.4792L495.033 68.2H497.95V66.2ZM508.15 39.8L510.016 39.0792L508.15 34.2506L506.284 39.0792L508.15 39.8ZM518.35 66.2V68.2H521.267L520.216 65.4792L518.35 66.2ZM535.15 112H571.75V108H535.15V112ZM573.583 109.199L527.683 4.1989L524.017 5.80108L569.917 110.801L573.583 109.199ZM525.85 2.99999H491.05V6.99999H525.85V2.99999ZM489.217 4.1989L443.317 109.199L446.983 110.801L492.883 5.80108L489.217 4.1989ZM445.15 112H481.15V108H445.15V112ZM483.016 110.719L490.066 92.419L486.334 90.981L479.284 109.281L483.016 110.719ZM488.2 93.7H528.1V89.7H488.2V93.7ZM526.234 92.419L533.284 110.719L537.016 109.281L529.966 90.981L526.234 92.419ZM499.816 66.9208L510.016 40.5208L506.284 39.0792L496.084 65.4792L499.816 66.9208ZM506.284 40.5208L516.484 66.9208L520.216 65.4792L510.016 39.0792L506.284 40.5208ZM518.35 64.2H497.95V68.2H518.35V64.2ZM677.335 91.4L678.922 92.6169L680.051 91.1439L678.667 89.9079L677.335 91.4ZM654.985 71.45L656.317 69.9579L654.731 68.5422L653.414 70.2117L654.985 71.45ZM654.985 43.55L653.414 44.7883L654.731 46.4578L656.317 45.0421L654.985 43.55ZM677.335 23.6L678.667 25.092L680.051 23.8561L678.922 22.3831L677.335 23.6ZM630.235 114.4C651.298 114.4 668.132 106.691 678.922 92.6169L675.748 90.1831C665.838 103.109 650.271 110.4 630.235 110.4V114.4ZM678.667 89.9079L656.317 69.9579L653.653 72.9421L676.003 92.8921L678.667 89.9079ZM653.414 70.2117C647.538 77.6651 640.719 81.75 632.035 81.75V85.75C642.25 85.75 650.132 80.8349 656.555 72.6883L653.414 70.2117ZM632.035 81.75C625.165 81.75 619.564 79.3782 615.675 75.2689C611.776 71.1503 609.435 65.1126 609.435 57.5H605.435C605.435 65.9374 608.043 73.0247 612.77 78.0186C617.505 83.0218 624.205 85.75 632.035 85.75V81.75ZM609.435 57.5C609.435 49.8874 611.776 43.8497 615.675 39.7311C619.564 35.6218 625.165 33.25 632.035 33.25V29.25C624.205 29.25 617.505 31.9781 612.77 36.9814C608.043 41.9753 605.435 49.0626 605.435 57.5H609.435ZM632.035 33.25C640.719 33.25 647.538 37.3349 653.414 44.7883L656.555 42.3117C650.132 34.1651 642.25 29.25 632.035 29.25V33.25ZM656.317 45.0421L678.667 25.092L676.003 22.1079L653.653 42.0579L656.317 45.0421ZM678.922 22.3831C668.132 8.30914 651.298 0.599997 630.235 0.599997V4.6C650.271 4.6 665.838 11.8909 675.748 24.8169L678.922 22.3831ZM630.235 0.599997C595.516 0.599997 569.735 24.0142 569.735 57.5H573.735C573.735 26.4858 597.453 4.6 630.235 4.6V0.599997ZM569.735 57.5C569.735 90.9858 595.516 114.4 630.235 114.4V110.4C597.453 110.4 573.735 88.5142 573.735 57.5H569.735ZM709.623 110H707.623V112H709.623V110ZM745.023 110V112H747.023V110H745.023ZM745.023 32.45V30.45H743.023V32.45H745.023ZM775.773 32.45V34.45H777.773V32.45H775.773ZM775.773 4.99999H777.773V2.99999H775.773V4.99999ZM678.873 4.99999V2.99999H676.873V4.99999H678.873ZM678.873 32.45H676.873V34.45H678.873V32.45ZM709.623 32.45H711.623V30.45H709.623V32.45ZM709.623 112H745.023V108H709.623V112ZM747.023 110V32.45H743.023V110H747.023ZM745.023 34.45H775.773V30.45H745.023V34.45ZM777.773 32.45V4.99999H773.773V32.45H777.773ZM775.773 2.99999H678.873V6.99999H775.773V2.99999ZM676.873 4.99999V32.45H680.873V4.99999H676.873ZM678.873 34.45H709.623V30.45H678.873V34.45ZM707.623 32.45V110H711.623V32.45H707.623ZM931.339 4.99999H933.339V2.99999H931.339V4.99999ZM896.539 4.99999V2.99999H894.539V4.99999H896.539ZM864.439 4.99999H866.439V2.99999H864.439V4.99999ZM829.039 4.99999V2.99999H827.039V4.99999H829.039ZM880.189 114.4C896.681 114.4 910.023 109.754 919.248 100.825C928.483 91.8862 933.339 78.9031 933.339 62.75H929.339C929.339 78.0969 924.744 89.9388 916.466 97.9504C908.18 105.971 895.947 110.4 880.189 110.4V114.4ZM933.339 62.75V4.99999H929.339V62.75H933.339ZM931.339 2.99999H896.539V6.99999H931.339V2.99999ZM894.539 4.99999V61.7H898.539V4.99999H894.539ZM894.539 61.7C894.539 69.5295 893.028 74.5078 890.658 77.5026C888.364 80.4011 885.012 81.75 880.489 81.75V85.75C885.865 85.75 890.538 84.0989 893.794 79.9849C896.974 75.9672 898.539 69.9205 898.539 61.7H894.539ZM880.489 81.75C875.965 81.75 872.613 80.4011 870.319 77.5026C867.949 74.5078 866.439 69.5295 866.439 61.7H862.439C862.439 69.9205 864.003 75.9672 867.183 79.9849C870.439 84.0989 875.112 85.75 880.489 85.75V81.75ZM866.439 61.7V4.99999H862.439V61.7H866.439ZM864.439 2.99999H829.039V6.99999H864.439V2.99999ZM827.039 4.99999V62.75H831.039V4.99999H827.039ZM827.039 62.75C827.039 78.9031 831.894 91.8862 841.129 100.825C850.355 109.754 863.697 114.4 880.189 114.4V110.4C864.431 110.4 852.198 105.971 843.911 97.9504C835.633 89.9388 831.039 78.0969 831.039 62.75H827.039ZM1020.47 37.4L1019.56 39.1837L1021.49 40.1598L1022.31 38.1669L1020.47 37.4ZM1031.12 11.75L1032.96 12.5169L1033.64 10.8762L1032.1 10.0062L1031.12 11.75ZM952.366 75.8L953.383 74.0781L951.446 72.9334L950.536 74.9917L952.366 75.8ZM940.966 101.6L939.136 100.792L938.43 102.39L939.919 103.304L940.966 101.6ZM986.716 114.4C1003.3 114.4 1016.01 110.272 1024.61 103.469C1033.25 96.6391 1037.62 87.211 1037.62 77H1033.62C1033.62 85.989 1029.81 94.2609 1022.13 100.331C1014.42 106.428 1002.68 110.4 986.716 110.4V114.4ZM1037.62 77C1037.62 66.7388 1033.73 59.584 1027.85 54.5504C1022.05 49.5971 1014.44 46.7945 1007.1 44.8773C1003.41 43.9144 999.727 43.1616 996.325 42.4812C992.898 41.7957 989.788 41.1904 987.132 40.5108C984.445 39.8237 982.432 39.1094 981.122 38.2885C979.861 37.4988 979.566 36.8294 979.566 36.2H975.566C975.566 38.7206 977.084 40.4793 978.998 41.6783C980.862 42.8461 983.384 43.681 986.14 44.386C988.926 45.0987 992.166 45.7285 995.541 46.4035C998.941 47.0837 1002.52 47.8169 1006.09 48.7477C1013.25 50.618 1020.15 53.2342 1025.25 57.5902C1030.24 61.866 1033.62 67.9112 1033.62 77H1037.62ZM979.566 36.2C979.566 35.1552 979.972 34.1527 981.495 33.2903C983.17 32.3416 986.172 31.6 991.216 31.6V27.6C985.909 27.6 982.086 28.3583 979.524 29.8097C976.809 31.3473 975.566 33.6448 975.566 36.2H979.566ZM991.216 31.6C999.987 31.6 1009.43 34.0437 1019.56 39.1837L1021.37 35.6163C1010.8 30.2563 1000.74 27.6 991.216 27.6V31.6ZM1022.31 38.1669L1032.96 12.5169L1029.27 10.9831L1018.62 36.6331L1022.31 38.1669ZM1032.1 10.0062C1020.77 3.64398 1005.86 0.599997 991.516 0.599997V4.6C1005.38 4.6 1019.56 7.55601 1030.14 13.4938L1032.1 10.0062ZM991.516 0.599997C974.935 0.599997 962.23 4.64873 953.623 11.4152C944.978 18.2122 940.616 27.6451 940.616 38H944.616C944.616 28.8549 948.428 20.5878 956.095 14.5598C963.801 8.50127 975.546 4.6 991.516 4.6V0.599997ZM940.616 38C940.616 48.3656 944.494 55.593 950.377 60.6876C956.167 65.7021 963.779 68.549 971.124 70.5133C974.812 71.4998 978.491 72.2775 981.89 72.9858C985.315 73.6994 988.423 74.336 991.074 75.0519C993.755 75.7758 995.762 76.5296 997.069 77.3929C998.316 78.2166 998.666 78.9485 998.666 79.7H1002.67C1002.67 77.1515 1001.2 75.3287 999.274 74.0553C997.406 72.8216 994.878 71.9359 992.117 71.1902C989.326 70.4367 986.084 69.7736 982.706 69.0699C979.303 68.3608 975.725 67.6033 972.157 66.6492C964.99 64.7322 958.09 62.076 952.995 57.6639C947.993 53.332 944.616 47.2094 944.616 38H940.616ZM998.666 79.7C998.666 80.2482 998.535 80.6385 998.31 80.9588C998.073 81.2965 997.63 81.6958 996.785 82.0776C995.032 82.8707 991.974 83.4 987.016 83.4V87.4C992.108 87.4 995.875 86.8793 998.433 85.7224C999.745 85.1292 1000.83 84.3285 1001.58 83.26C1002.35 82.174 1002.67 80.9518 1002.67 79.7H998.666ZM987.016 83.4C975.838 83.4 962.987 79.7535 953.383 74.0781L951.348 77.5219C961.544 83.5465 975.093 87.4 987.016 87.4V83.4ZM950.536 74.9917L939.136 100.792L942.795 102.408L954.195 76.6083L950.536 74.9917ZM939.919 103.304C950.824 110.003 968.918 114.4 986.716 114.4V110.4C969.413 110.4 952.108 106.097 942.012 99.8958L939.919 103.304Z" fill="#FECB46"/>
</svg>
