<svg width="1034" height="111" viewBox="0 0 1034 111" fill="none" xmlns="http://www.w3.org/2000/svg">
<path d="M58.85 110.4C79.4 110.4 95.6 102.9 105.95 89.4L83.6 69.45C77.45 77.25 70.1 81.75 60.65 81.75C45.95 81.75 36.05 71.55 36.05 55.5C36.05 39.45 45.95 29.25 60.65 29.25C70.1 29.25 77.45 33.75 83.6 41.55L105.95 21.6C95.6 8.1 79.4 0.599997 58.85 0.599997C25.1 0.599997 0.35 23.25 0.35 55.5C0.35 87.75 25.1 110.4 58.85 110.4ZM169.024 110.4C203.224 110.4 228.274 87.3 228.274 55.5C228.274 23.7 203.224 0.599997 169.024 0.599997C134.824 0.599997 109.774 23.7 109.774 55.5C109.774 87.3 134.824 110.4 169.024 110.4ZM169.024 81.75C155.974 81.75 145.474 71.85 145.474 55.5C145.474 39.15 155.974 29.25 169.024 29.25C182.074 29.25 192.574 39.15 192.574 55.5C192.574 71.85 182.074 81.75 169.024 81.75ZM310.122 2.99999V50.7L270.222 2.99999H241.122V108H275.622V60.3L315.522 108H344.622V2.99999H310.122ZM384.479 108H419.879V30.45H450.629V2.99999H353.729V30.45H384.479V108ZM533.15 108H569.75L523.85 2.99999H489.05L443.15 108H479.15L486.2 89.7H526.1L533.15 108ZM495.95 64.2L506.15 37.8L516.35 64.2H495.95ZM628.235 110.4C648.785 110.4 664.985 102.9 675.335 89.4L652.985 69.45C646.835 77.25 639.485 81.75 630.035 81.75C615.335 81.75 605.435 71.55 605.435 55.5C605.435 39.45 615.335 29.25 630.035 29.25C639.485 29.25 646.835 33.75 652.985 41.55L675.335 21.6C664.985 8.1 648.785 0.599997 628.235 0.599997C594.485 0.599997 569.735 23.25 569.735 55.5C569.735 87.75 594.485 110.4 628.235 110.4ZM707.623 108H743.023V30.45H773.773V2.99999H676.873V30.45H707.623V108ZM878.189 110.4C910.439 110.4 929.339 92.25 929.339 60.75V2.99999H894.539V59.7C894.539 75.75 888.389 81.75 878.489 81.75C868.589 81.75 862.439 75.75 862.439 59.7V2.99999H827.039V60.75C827.039 92.25 845.939 110.4 878.189 110.4ZM984.716 110.4C1017.27 110.4 1033.62 94.2 1033.62 75C1033.62 36.3 975.566 46.8 975.566 34.2C975.566 30.6 978.866 27.6 989.216 27.6C998.366 27.6 1008.12 30.15 1018.47 35.4L1029.12 9.75C1018.17 3.59999 1003.62 0.599997 989.516 0.599997C956.966 0.599997 940.616 16.5 940.616 36C940.616 75.15 998.666 64.5 998.666 77.7C998.666 81.3 995.066 83.4 985.016 83.4C973.466 83.4 960.266 79.65 950.366 73.8L938.966 99.6C949.466 106.05 967.166 110.4 984.716 110.4Z" fill="#1F1F1F"/>
</svg>
