<svg width="23" height="23" viewBox="0 0 23 23" fill="none" xmlns="http://www.w3.org/2000/svg">
<path d="M4.94136 22.0755H0.364639V7.33681H4.94136V22.0755ZM2.65053 5.32632C1.18705 5.32632 0 4.11411 0 2.65059C1.0475e-08 1.94761 0.279252 1.27342 0.776324 0.776341C1.2734 0.279258 1.94757 0 2.65053 0C3.3535 0 4.02767 0.279258 4.52475 0.776341C5.02182 1.27342 5.30107 1.94761 5.30107 2.65059C5.30107 4.11411 4.11353 5.32632 2.65053 5.32632ZM22.0705 22.0755H17.5037V14.9008C17.5037 13.1909 17.4692 10.9981 15.1242 10.9981C12.7446 10.9981 12.38 12.8558 12.38 14.7776V22.0755H7.80821V7.33681H12.1977V9.3473H12.2617C12.8728 8.1893 14.3653 6.96723 16.5921 6.96723C21.224 6.96723 22.0755 10.0175 22.0755 13.9793V22.0755H22.0705Z" fill="white"/>
</svg>
