<svg width="1075" height="115" viewBox="0 0 1075 115" fill="none" xmlns="http://www.w3.org/2000/svg">
<path d="M61.6 114.4C96.7555 114.4 122.85 90.548 122.85 57.5H118.85C118.85 88.052 94.8446 110.4 61.6 110.4V114.4ZM122.85 57.5C122.85 24.452 96.7555 0.599998 61.6 0.599998V4.6C94.8446 4.6 118.85 26.948 118.85 57.5H122.85ZM61.6 0.599998C26.4445 0.599998 0.35 24.452 0.35 57.5H4.35C4.35 26.948 28.3555 4.6 61.6 4.6V0.599998ZM0.35 57.5C0.35 90.548 26.4445 114.4 61.6 114.4V110.4C28.3555 110.4 4.35 88.052 4.35 57.5H0.35ZM61.6 81.75C55.5962 81.75 50.2454 79.4811 46.3871 75.385C42.5279 71.2877 40.05 65.2391 40.05 57.5H36.05C36.05 66.1109 38.8221 73.1873 43.4754 78.1275C48.1296 83.0688 54.5538 85.75 61.6 85.75V81.75ZM40.05 57.5C40.05 49.7609 42.5279 43.7123 46.3871 39.615C50.2454 35.5188 55.5962 33.25 61.6 33.25V29.25C54.5538 29.25 48.1296 31.9311 43.4754 36.8725C38.8221 41.8127 36.05 48.8891 36.05 57.5H40.05ZM61.6 33.25C67.6038 33.25 72.9547 35.5188 76.8129 39.615C80.6721 43.7123 83.15 49.7609 83.15 57.5H87.15C87.15 48.8891 84.3779 41.8127 79.7246 36.8725C75.0704 31.9311 68.6462 29.25 61.6 29.25V33.25ZM83.15 57.5C83.15 65.2391 80.6721 71.2877 76.8129 75.385C72.9547 79.4811 67.6038 81.75 61.6 81.75V85.75C68.6462 85.75 75.0704 83.0688 79.7246 78.1275C84.3779 73.1873 87.15 66.1109 87.15 57.5H83.15ZM235.098 4.99999H237.098V2.99999H235.098V4.99999ZM200.298 4.99999V2.99999H198.298V4.99999H200.298ZM168.198 4.99999H170.198V2.99999H168.198V4.99999ZM132.798 4.99999V2.99999H130.798V4.99999H132.798ZM183.948 114.4C200.441 114.4 213.782 109.754 223.008 100.825C232.243 91.8862 237.098 78.9031 237.098 62.75H233.098C233.098 78.0969 228.504 89.9388 220.226 97.9504C211.94 105.971 199.706 110.4 183.948 110.4V114.4ZM237.098 62.75V4.99999H233.098V62.75H237.098ZM235.098 2.99999H200.298V6.99999H235.098V2.99999ZM198.298 4.99999V61.7H202.298V4.99999H198.298ZM198.298 61.7C198.298 69.5295 196.788 74.5078 194.418 77.5026C192.124 80.4011 188.772 81.75 184.248 81.75V85.75C189.625 85.75 194.298 84.0989 197.554 79.9849C200.734 75.9672 202.298 69.9205 202.298 61.7H198.298ZM184.248 81.75C179.725 81.75 176.373 80.4011 174.079 77.5026C171.709 74.5078 170.198 69.5295 170.198 61.7H166.198C166.198 69.9205 167.763 75.9672 170.943 79.9849C174.199 84.0989 178.872 85.75 184.248 85.75V81.75ZM170.198 61.7V4.99999H166.198V61.7H170.198ZM168.198 2.99999H132.798V6.99999H168.198V2.99999ZM130.798 4.99999V62.75H134.798V4.99999H130.798ZM130.798 62.75C130.798 78.9031 135.654 91.8862 144.889 100.825C154.115 109.754 167.456 114.4 183.948 114.4V110.4C168.191 110.4 155.957 105.971 147.671 97.9504C139.393 89.9388 134.798 78.0969 134.798 62.75H130.798ZM314.175 110L312.519 111.12L313.113 112H314.175V110ZM351.975 110V112H355.756L353.629 108.875L351.975 110ZM329.925 77.6L329.014 75.8197L326.997 76.8521L328.272 78.7253L329.925 77.6ZM251.325 4.99999V2.99999H249.325V4.99999H251.325ZM251.325 110H249.325V112H251.325V110ZM286.725 110V112H288.725V110H286.725ZM286.725 83.6V81.6H284.725V83.6H286.725ZM296.325 83.6L297.982 82.4798L297.387 81.6H296.325V83.6ZM286.725 56.9H284.725V58.9H286.725V56.9ZM286.725 32.3V30.3H284.725V32.3H286.725ZM314.175 112H351.975V108H314.175V112ZM353.629 108.875L331.579 76.4748L328.272 78.7253L350.322 111.125L353.629 108.875ZM330.837 79.3803C344.112 72.5847 351.725 60.493 351.725 44.6H347.725C347.725 59.007 340.939 69.7153 329.014 75.8197L330.837 79.3803ZM351.725 44.6C351.725 31.8962 346.841 21.4145 338.043 14.1456C329.286 6.91104 316.83 2.99999 301.875 2.99999V6.99999C316.171 6.99999 327.639 10.7389 335.495 17.2293C343.31 23.6855 347.725 33.0038 347.725 44.6H351.725ZM301.875 2.99999H251.325V6.99999H301.875V2.99999ZM249.325 4.99999V110H253.325V4.99999H249.325ZM251.325 112H286.725V108H251.325V112ZM288.725 110V83.6H284.725V110H288.725ZM286.725 85.6H296.325V81.6H286.725V85.6ZM294.669 84.7202L312.519 111.12L315.832 108.88L297.982 82.4798L294.669 84.7202ZM312.025 44.6C312.025 48.0106 311.002 50.4783 309.152 52.1246C307.264 53.8043 304.213 54.9 299.625 54.9V58.9C304.788 58.9 308.936 57.6707 311.811 55.1129C314.723 52.5217 316.025 48.8394 316.025 44.6H312.025ZM299.625 54.9H286.725V58.9H299.625V54.9ZM288.725 56.9V32.3H284.725V56.9H288.725ZM286.725 34.3H299.625V30.3H286.725V34.3ZM299.625 34.3C304.213 34.3 307.264 35.3957 309.152 37.0754C311.002 38.7217 312.025 41.1894 312.025 44.6H316.025C316.025 40.3606 314.723 36.6783 311.811 34.0871C308.936 31.5293 304.788 30.3 299.625 30.3V34.3ZM509.464 91.4L511.051 92.6169L512.18 91.1439L510.796 89.9079L509.464 91.4ZM487.114 71.45L488.446 69.9579L486.859 68.5422L485.543 70.2117L487.114 71.45ZM487.114 43.55L485.543 44.7883L486.859 46.4578L488.446 45.0421L487.114 43.55ZM509.464 23.6L510.796 25.092L512.18 23.8561L511.051 22.3831L509.464 23.6ZM462.364 114.4C483.427 114.4 500.261 106.691 511.051 92.6169L507.876 90.1831C497.967 103.109 482.4 110.4 462.364 110.4V114.4ZM510.796 89.9079L488.446 69.9579L485.782 72.9421L508.132 92.8921L510.796 89.9079ZM485.543 70.2117C479.666 77.6651 472.848 81.75 464.164 81.75V85.75C474.379 85.75 482.261 80.8349 488.684 72.6883L485.543 70.2117ZM464.164 81.75C457.293 81.75 451.693 79.3782 447.804 75.2689C443.905 71.1503 441.564 65.1126 441.564 57.5H437.564C437.564 65.9374 440.172 73.0247 444.899 78.0186C449.634 83.0218 456.334 85.75 464.164 85.75V81.75ZM441.564 57.5C441.564 49.8874 443.905 43.8497 447.804 39.7311C451.693 35.6218 457.293 33.25 464.164 33.25V29.25C456.334 29.25 449.634 31.9781 444.899 36.9814C440.172 41.9753 437.564 49.0626 437.564 57.5H441.564ZM464.164 33.25C472.848 33.25 479.666 37.3349 485.543 44.7883L488.684 42.3117C482.261 34.1651 474.379 29.25 464.164 29.25V33.25ZM488.446 45.0421L510.796 25.092L508.132 22.1079L485.782 42.0579L488.446 45.0421ZM511.051 22.3831C500.261 8.30914 483.427 0.599998 462.364 0.599998V4.6C482.4 4.6 497.967 11.8909 507.876 24.8169L511.051 22.3831ZM462.364 0.599998C427.645 0.599998 401.864 24.0142 401.864 57.5H405.864C405.864 26.4858 429.582 4.6 462.364 4.6V0.599998ZM401.864 57.5C401.864 90.9858 427.645 114.4 462.364 114.4V110.4C429.582 110.4 405.864 88.5142 405.864 57.5H401.864ZM519.685 110H517.685V112H519.685V110ZM602.485 110V112H604.485V110H602.485ZM602.485 82.55H604.485V80.55H602.485V82.55ZM555.085 82.55H553.085V84.55H555.085V82.55ZM555.085 4.99999H557.085V2.99999H555.085V4.99999ZM519.685 4.99999V2.99999H517.685V4.99999H519.685ZM519.685 112H602.485V108H519.685V112ZM604.485 110V82.55H600.485V110H604.485ZM602.485 80.55H555.085V84.55H602.485V80.55ZM557.085 82.55V4.99999H553.085V82.55H557.085ZM555.085 2.99999H519.685V6.99999H555.085V2.99999ZM517.685 4.99999V110H521.685V4.99999H517.685ZM612.263 110H610.263V112H612.263V110ZM647.663 110V112H649.663V110H647.663ZM647.663 4.99999H649.663V2.99999H647.663V4.99999ZM612.263 4.99999V2.99999H610.263V4.99999H612.263ZM612.263 112H647.663V108H612.263V112ZM649.663 110V4.99999H645.663V110H649.663ZM647.663 2.99999H612.263V6.99999H647.663V2.99999ZM610.263 4.99999V110H614.263V4.99999H610.263ZM699.504 83.3H697.504V85.3H699.504V83.3ZM699.504 69.5V67.5H697.504V69.5H699.504ZM743.904 69.5V71.5H745.904V69.5H743.904ZM743.904 44H745.904V42H743.904V44ZM699.504 44H697.504V46H699.504V44ZM699.504 31.7V29.7H697.504V31.7H699.504ZM750.054 31.7V33.7H752.054V31.7H750.054ZM750.054 4.99999H752.054V2.99999H750.054V4.99999ZM664.704 4.99999V2.99999H662.704V4.99999H664.704ZM664.704 110H662.704V112H664.704V110ZM752.004 110V112H754.004V110H752.004ZM752.004 83.3H754.004V81.3H752.004V83.3ZM701.504 83.3V69.5H697.504V83.3H701.504ZM699.504 71.5H743.904V67.5H699.504V71.5ZM745.904 69.5V44H741.904V69.5H745.904ZM743.904 42H699.504V46H743.904V42ZM701.504 44V31.7H697.504V44H701.504ZM699.504 33.7H750.054V29.7H699.504V33.7ZM752.054 31.7V4.99999H748.054V31.7H752.054ZM750.054 2.99999H664.704V6.99999H750.054V2.99999ZM662.704 4.99999V110H666.704V4.99999H662.704ZM664.704 112H752.004V108H664.704V112ZM754.004 110V83.3H750.004V110H754.004ZM752.004 81.3H699.504V85.3H752.004V81.3ZM834.632 4.99999V2.99999H832.632V4.99999H834.632ZM834.632 52.7L833.098 53.9832L836.632 58.2081V52.7H834.632ZM794.732 4.99999L796.266 3.71678L795.667 2.99999H794.732V4.99999ZM765.632 4.99999V2.99999H763.632V4.99999H765.632ZM765.632 110H763.632V112H765.632V110ZM800.132 110V112H802.132V110H800.132ZM800.132 62.3L801.666 61.0168L798.132 56.7918V62.3H800.132ZM840.032 110L838.498 111.283L839.098 112H840.032V110ZM869.132 110V112H871.132V110H869.132ZM869.132 4.99999H871.132V2.99999H869.132V4.99999ZM832.632 4.99999V52.7H836.632V4.99999H832.632ZM836.166 51.4168L796.266 3.71678L793.198 6.28321L833.098 53.9832L836.166 51.4168ZM794.732 2.99999H765.632V6.99999H794.732V2.99999ZM763.632 4.99999V110H767.632V4.99999H763.632ZM765.632 112H800.132V108H765.632V112ZM802.132 110V62.3H798.132V110H802.132ZM798.598 63.5832L838.498 111.283L841.566 108.717L801.666 61.0168L798.598 63.5832ZM840.032 112H869.132V108H840.032V112ZM871.132 110V4.99999H867.132V110H871.132ZM869.132 2.99999H834.632V6.99999H869.132V2.99999ZM908.989 110H906.989V112H908.989V110ZM944.389 110V112H946.389V110H944.389ZM944.389 32.45V30.45H942.389V32.45H944.389ZM975.139 32.45V34.45H977.139V32.45H975.139ZM975.139 4.99999H977.139V2.99999H975.139V4.99999ZM878.239 4.99999V2.99999H876.239V4.99999H878.239ZM878.239 32.45H876.239V34.45H878.239V32.45ZM908.989 32.45H910.989V30.45H908.989V32.45ZM908.989 112H944.389V108H908.989V112ZM946.389 110V32.45H942.389V110H946.389ZM944.389 34.45H975.139V30.45H944.389V34.45ZM977.139 32.45V4.99999H973.139V32.45H977.139ZM975.139 2.99999H878.239V6.99999H975.139V2.99999ZM876.239 4.99999V32.45H880.239V4.99999H876.239ZM878.239 34.45H908.989V30.45H878.239V34.45ZM906.989 32.45V110H910.989V32.45H906.989ZM1057.23 37.4L1056.33 39.1836L1058.25 40.1598L1059.08 38.1669L1057.23 37.4ZM1067.88 11.75L1069.73 12.5169L1070.41 10.8762L1068.86 10.0062L1067.88 11.75ZM989.133 75.8L990.151 74.0781L988.213 72.9333L987.304 74.9917L989.133 75.8ZM977.733 101.6L975.904 100.792L975.198 102.39L976.686 103.304L977.733 101.6ZM1023.48 114.4C1040.07 114.4 1052.78 110.272 1061.38 103.469C1070.02 96.6391 1074.38 87.211 1074.38 77H1070.38C1070.38 85.989 1066.58 94.2609 1058.9 100.331C1051.19 106.428 1039.44 110.4 1023.48 110.4V114.4ZM1074.38 77C1074.38 66.7388 1070.5 59.584 1064.61 54.5504C1058.82 49.5971 1051.21 46.7944 1043.86 44.8773C1040.17 43.9144 1036.49 43.1616 1033.09 42.4812C1029.67 41.7957 1026.56 41.1904 1023.9 40.5108C1021.21 39.8237 1019.2 39.1094 1017.89 38.2885C1016.63 37.4988 1016.33 36.8294 1016.33 36.2H1012.33C1012.33 38.7206 1013.85 40.4793 1015.77 41.6783C1017.63 42.8461 1020.15 43.681 1022.91 44.386C1025.69 45.0987 1028.93 45.7285 1032.31 46.4035C1035.71 47.0837 1039.29 47.8169 1042.85 48.7477C1050.02 50.618 1056.92 53.2342 1062.01 57.5902C1067.01 61.866 1070.38 67.9112 1070.38 77H1074.38ZM1016.33 36.2C1016.33 35.1552 1016.74 34.1527 1018.26 33.2903C1019.94 32.3417 1022.94 31.6 1027.98 31.6V27.6C1022.68 27.6 1018.85 28.3583 1016.29 29.8097C1013.58 31.3473 1012.33 33.6448 1012.33 36.2H1016.33ZM1027.98 31.6C1036.75 31.6 1046.2 34.0437 1056.33 39.1836L1058.14 35.6163C1047.57 30.2563 1037.51 27.6 1027.98 27.6V31.6ZM1059.08 38.1669L1069.73 12.5169L1066.04 10.9831L1055.39 36.6331L1059.08 38.1669ZM1068.86 10.0062C1057.53 3.64398 1042.62 0.599998 1028.28 0.599998V4.6C1042.14 4.6 1056.33 7.55601 1066.9 13.4938L1068.86 10.0062ZM1028.28 0.599998C1011.7 0.599998 998.997 4.64873 990.391 11.4152C981.746 18.2122 977.383 27.6451 977.383 38H981.383C981.383 28.8549 985.196 20.5878 992.863 14.5598C1000.57 8.50127 1012.31 4.6 1028.28 4.6V0.599998ZM977.383 38C977.383 48.3656 981.262 55.593 987.144 60.6876C992.934 65.7021 1000.55 68.549 1007.89 70.5133C1011.58 71.4998 1015.26 72.2775 1018.66 72.9858C1022.08 73.6994 1025.19 74.336 1027.84 75.0519C1030.52 75.7758 1032.53 76.5296 1033.84 77.3929C1035.08 78.2166 1035.43 78.9485 1035.43 79.7H1039.43C1039.43 77.1515 1037.97 75.3287 1036.04 74.0553C1034.17 72.8216 1031.65 71.9359 1028.88 71.1902C1026.09 70.4367 1022.85 69.7736 1019.47 69.0699C1016.07 68.3608 1012.49 67.6033 1008.92 66.6492C1001.76 64.7322 994.857 62.076 989.763 57.6639C984.761 53.332 981.383 47.2094 981.383 38H977.383ZM1035.43 79.7C1035.43 80.2482 1035.3 80.6385 1035.08 80.9588C1034.84 81.2965 1034.4 81.6958 1033.55 82.0776C1031.8 82.8707 1028.74 83.4 1023.78 83.4V87.4C1028.88 87.4 1032.64 86.8793 1035.2 85.7224C1036.51 85.1292 1037.6 84.3285 1038.35 83.26C1039.11 82.174 1039.43 80.9518 1039.43 79.7H1035.43ZM1023.78 83.4C1012.61 83.4 999.755 79.7535 990.151 74.0781L988.116 77.5219C998.311 83.5465 1011.86 87.4 1023.78 87.4V83.4ZM987.304 74.9917L975.904 100.792L979.563 102.408L990.963 76.6083L987.304 74.9917ZM976.686 103.304C987.591 110.003 1005.69 114.4 1023.48 114.4V110.4C1006.18 110.4 988.875 106.097 978.78 99.8958L976.686 103.304Z" fill="#FECB46"/>
</svg>
