<svg width="968" height="256" viewBox="0 0 968 256" fill="none" xmlns="http://www.w3.org/2000/svg">
<path d="M59.73 52.76L58.8253 54.5437L60.7497 55.5198L61.5771 53.5269L59.73 52.76ZM67.54 33.95L69.3871 34.7169L70.0684 33.0762L68.5194 32.2062L67.54 33.95ZM9.79 80.92L10.8075 79.1981L8.87012 78.0534L7.96063 80.1117L9.79 80.92ZM1.43 99.84L-0.399373 99.0317L-1.10548 100.63L0.383164 101.544L1.43 99.84ZM34.98 109.76C47.2293 109.76 56.6737 106.712 63.1018 101.629C69.5631 96.5191 72.84 89.451 72.84 81.8H68.84C68.84 88.229 66.1219 94.1409 60.6207 98.4912C55.0863 102.868 46.6007 105.76 34.98 105.76V109.76ZM72.84 81.8C72.84 74.1188 69.9223 68.724 65.4884 64.9317C61.1483 61.2196 55.4709 59.1395 50.0601 57.7273C47.3379 57.0169 44.6267 56.4623 42.1316 55.9633C39.6111 55.4591 37.3481 55.0185 35.4172 54.5246C33.4567 54.023 32.048 53.5153 31.1609 52.9596C30.3236 52.435 30.27 52.0894 30.27 51.88H26.27C26.27 53.9806 27.5467 55.4156 29.0374 56.3494C30.4784 57.252 32.3955 57.8804 34.4259 58.3998C36.4859 58.9268 38.8791 59.3919 41.3472 59.8856C43.8408 60.3843 46.4509 60.9194 49.05 61.5977C54.2816 62.963 59.2467 64.8567 62.8885 67.9715C66.4364 71.006 68.84 75.2912 68.84 81.8H72.84ZM30.27 51.88C30.27 51.3152 30.4567 50.7527 31.4144 50.2103C32.5243 49.5817 34.6164 49.04 38.28 49.04V45.04C34.3536 45.04 31.4407 45.5983 29.4431 46.7297C27.2933 47.9473 26.27 49.8048 26.27 51.88H30.27ZM38.28 49.04C44.6114 49.04 51.4522 50.8037 58.8253 54.5437L60.6348 50.9763C52.8279 47.0163 45.3686 45.04 38.28 45.04V49.04ZM61.5771 53.5269L69.3871 34.7169L65.6929 33.1831L57.8829 51.9931L61.5771 53.5269ZM68.5194 32.2062C60.1115 27.484 49.0797 25.24 38.5 25.24V29.24C48.6003 29.24 58.9085 31.396 66.5606 35.6938L68.5194 32.2062ZM38.5 25.24C26.2594 25.24 16.8142 28.2287 10.3826 33.2852C3.91237 38.3722 0.64 45.4451 0.64 53.2H4.64C4.64 46.6549 7.36263 40.7478 12.8549 36.4298C18.3858 32.0813 26.8706 29.24 38.5 29.24V25.24ZM0.64 53.2C0.64 60.9556 3.55101 66.403 7.98222 70.2407C12.321 73.9984 17.9984 76.1115 23.4083 77.5583C26.1293 78.2861 28.8401 78.859 31.3326 79.3784C33.8508 79.903 36.1113 80.3663 38.0371 80.8863C39.9921 81.4142 41.3949 81.9494 42.2785 82.5331C43.1021 83.0772 43.21 83.4685 43.21 83.78H47.21C47.21 81.6715 45.9876 80.1893 44.4832 79.1956C43.0387 78.2414 41.1157 77.5744 39.0798 77.0246C37.0147 76.467 34.6191 75.9772 32.1485 75.4625C29.6524 74.9424 27.042 74.3896 24.4417 73.6942C19.2091 72.2947 14.244 70.3722 10.6009 67.2171C7.05024 64.142 4.64 59.7994 4.64 53.2H0.64ZM43.21 83.78C43.21 84.0882 43.1398 84.2635 43.0464 84.3963C42.9408 84.5465 42.7018 84.7858 42.1447 85.0376C40.9659 85.5707 38.8181 85.96 35.2 85.96V89.96C38.9519 89.96 41.8091 89.5793 43.7928 88.6824C44.817 88.2192 45.6985 87.5785 46.3182 86.6975C46.9502 85.799 47.21 84.7918 47.21 83.78H43.21ZM35.2 85.96C27.1022 85.96 17.7719 83.3135 10.8075 79.1981L8.77254 82.6419C16.3281 87.1065 26.3578 89.96 35.2 89.96V85.96ZM7.96063 80.1117L-0.399373 99.0317L3.25937 100.648L11.6194 81.7283L7.96063 80.1117ZM0.383164 101.544C8.48793 106.523 21.8624 109.76 34.98 109.76V105.76C22.3576 105.76 9.77207 102.617 2.47684 98.1358L0.383164 101.544ZM104.085 86.42H102.085V88.42H104.085V86.42ZM104.085 76.3V74.3H102.085V76.3H104.085ZM136.645 76.3V78.3H138.645V76.3H136.645ZM136.645 57.6H138.645V55.6H136.645V57.6ZM104.085 57.6H102.085V59.6H104.085V57.6ZM104.085 48.58V46.58H102.085V48.58H104.085ZM141.155 48.58V50.58H143.155V48.58H141.155ZM141.155 29H143.155V27H141.155V29ZM78.5649 29V27H76.5649V29H78.5649ZM78.5649 106H76.5649V108H78.5649V106ZM142.585 106V108H144.585V106H142.585ZM142.585 86.42H144.585V84.42H142.585V86.42ZM106.085 86.42V76.3H102.085V86.42H106.085ZM104.085 78.3H136.645V74.3H104.085V78.3ZM138.645 76.3V57.6H134.645V76.3H138.645ZM136.645 55.6H104.085V59.6H136.645V55.6ZM106.085 57.6V48.58H102.085V57.6H106.085ZM104.085 50.58H141.155V46.58H104.085V50.58ZM143.155 48.58V29H139.155V48.58H143.155ZM141.155 27H78.5649V31H141.155V27ZM76.5649 29V106H80.5649V29H76.5649ZM78.5649 108H142.585V104H78.5649V108ZM144.585 106V86.42H140.585V106H144.585ZM142.585 84.42H104.085V88.42H142.585V84.42ZM210.219 106L208.352 106.719L208.846 108H210.219V106ZM237.059 106V108H240.116L238.891 105.199L237.059 106ZM203.399 29L205.231 28.1989L204.707 27H203.399V29ZM177.879 29V27H176.57L176.046 28.1989L177.879 29ZM144.219 106L142.386 105.199L141.162 108H144.219V106ZM170.619 106V108H171.991L172.485 106.719L170.619 106ZM175.789 92.58V90.58H174.416L173.922 91.861L175.789 92.58ZM205.049 92.58L206.915 91.861L206.421 90.58H205.049V92.58ZM182.939 73.88L181.073 73.1592L180.022 75.88H182.939V73.88ZM190.419 54.52L192.284 53.7992L190.419 48.9706L188.553 53.7992L190.419 54.52ZM197.899 73.88V75.88H200.815L199.764 73.1592L197.899 73.88ZM210.219 108H237.059V104H210.219V108ZM238.891 105.199L205.231 28.1989L201.566 29.8011L235.226 106.801L238.891 105.199ZM203.399 27H177.879V31H203.399V27ZM176.046 28.1989L142.386 105.199L146.051 106.801L179.711 29.8011L176.046 28.1989ZM144.219 108H170.619V104H144.219V108ZM172.485 106.719L177.655 93.299L173.922 91.861L168.752 105.281L172.485 106.719ZM175.789 94.58H205.049V90.58H175.789V94.58ZM203.182 93.299L208.352 106.719L212.085 105.281L206.915 91.861L203.182 93.299ZM184.804 74.6008L192.284 55.2408L188.553 53.7992L181.073 73.1592L184.804 74.6008ZM188.553 55.2408L196.033 74.6008L199.764 73.1592L192.284 53.7992L188.553 55.2408ZM197.899 71.88H182.939V75.88H197.899V71.88ZM287.292 106L285.635 107.12L286.23 108H287.292V106ZM315.012 106V108H318.792L316.665 104.875L315.012 106ZM298.842 82.24L297.93 80.4597L295.913 81.4921L297.188 83.3652L298.842 82.24ZM241.202 29V27H239.202V29H241.202ZM241.202 106H239.202V108H241.202V106ZM267.162 106V108H269.162V106H267.162ZM267.162 86.64V84.64H265.162V86.64H267.162ZM274.202 86.64L275.858 85.5198L275.264 84.64H274.202V86.64ZM267.162 67.06H265.162V69.06H267.162V67.06ZM267.162 49.02V47.02H265.162V49.02H267.162ZM287.292 108H315.012V104H287.292V108ZM316.665 104.875L300.495 81.1148L297.188 83.3652L313.358 107.125L316.665 104.875ZM299.753 84.0203C309.668 78.9447 315.362 69.893 315.362 58.04H311.362C311.362 68.407 306.495 76.0753 297.93 80.4597L299.753 84.0203ZM315.362 58.04C315.362 48.5762 311.717 40.7345 305.134 35.2956C298.593 29.891 289.326 27 278.272 27V31C288.667 31 296.946 33.7189 302.587 38.3793C308.186 43.0055 311.362 49.6838 311.362 58.04H315.362ZM278.272 27H241.202V31H278.272V27ZM239.202 29V106H243.202V29H239.202ZM241.202 108H267.162V104H241.202V108ZM269.162 106V86.64H265.162V106H269.162ZM267.162 88.64H274.202V84.64H267.162V88.64ZM272.545 87.7602L285.635 107.12L288.948 104.88L275.858 85.5198L272.545 87.7602ZM285.182 58.04C285.182 60.4306 284.469 62.0783 283.253 63.1596C282.001 64.2743 279.909 65.06 276.622 65.06V69.06C280.485 69.06 283.673 68.1407 285.912 66.1479C288.19 64.1217 289.182 61.2594 289.182 58.04H285.182ZM276.622 65.06H267.162V69.06H276.622V65.06ZM269.162 67.06V49.02H265.162V67.06H269.162ZM267.162 51.02H276.622V47.02H267.162V51.02ZM276.622 51.02C279.909 51.02 282.001 51.8057 283.253 52.9204C284.469 54.0017 285.182 55.6494 285.182 58.04H289.182C289.182 54.8206 288.19 51.9583 285.912 49.9321C283.673 47.9393 280.485 47.02 276.622 47.02V51.02ZM397.525 92.36L399.112 93.5769L400.241 92.1039L398.856 90.8679L397.525 92.36ZM381.135 77.73L382.466 76.2379L380.88 74.8222L379.564 76.4917L381.135 77.73ZM381.135 57.27L379.564 58.5083L380.88 60.1778L382.466 58.7621L381.135 57.27ZM397.525 42.64L398.856 44.132L400.241 42.8961L399.112 41.4231L397.525 42.64ZM362.985 109.76C378.568 109.76 391.082 104.051 399.112 93.5769L395.937 91.1431C388.787 100.469 377.541 105.76 362.985 105.76V109.76ZM398.856 90.8679L382.466 76.2379L379.803 79.2221L396.193 93.8521L398.856 90.8679ZM379.564 76.4917C375.327 81.8651 370.469 84.75 364.305 84.75V88.75C372 88.75 377.922 85.0349 382.705 78.9683L379.564 76.4917ZM364.305 84.75C359.394 84.75 355.434 83.0582 352.695 80.1639C349.946 77.2603 348.265 72.9726 348.265 67.5H344.265C344.265 73.7974 346.213 79.1347 349.789 82.9136C353.375 86.7018 358.435 88.75 364.305 88.75V84.75ZM348.265 67.5C348.265 62.0274 349.946 57.7397 352.695 54.8361C355.434 51.9418 359.394 50.25 364.305 50.25V46.25C358.435 46.25 353.375 48.2982 349.789 52.0864C346.213 55.8653 344.265 61.2026 344.265 67.5H348.265ZM364.305 50.25C370.469 50.25 375.327 53.1349 379.564 58.5083L382.705 56.0317C377.922 49.9651 372 46.25 364.305 46.25V50.25ZM382.466 58.7621L398.856 44.132L396.193 41.1479L379.803 55.7779L382.466 58.7621ZM399.112 41.4231C391.082 30.9491 378.568 25.24 362.985 25.24V29.24C377.541 29.24 388.787 34.5309 395.937 43.8569L399.112 41.4231ZM362.985 25.24C337.266 25.24 318.085 42.6142 318.085 67.5H322.085C322.085 45.0858 339.203 29.24 362.985 29.24V25.24ZM318.085 67.5C318.085 92.3858 337.266 109.76 362.985 109.76V105.76C339.203 105.76 322.085 89.9142 322.085 67.5H318.085ZM454.96 29V27H452.96V29H454.96ZM454.96 56.28V58.28H456.96V56.28H454.96ZM430.98 56.28H428.98V58.28H430.98V56.28ZM430.98 29H432.98V27H430.98V29ZM405.02 29V27H403.02V29H405.02ZM405.02 106H403.02V108H405.02V106ZM430.98 106V108H432.98V106H430.98ZM430.98 77.62V75.62H428.98V77.62H430.98ZM454.96 77.62H456.96V75.62H454.96V77.62ZM454.96 106H452.96V108H454.96V106ZM480.92 106V108H482.92V106H480.92ZM480.92 29H482.92V27H480.92V29ZM452.96 29V56.28H456.96V29H452.96ZM454.96 54.28H430.98V58.28H454.96V54.28ZM432.98 56.28V29H428.98V56.28H432.98ZM430.98 27H405.02V31H430.98V27ZM403.02 29V106H407.02V29H403.02ZM405.02 108H430.98V104H405.02V108ZM432.98 106V77.62H428.98V106H432.98ZM430.98 79.62H454.96V75.62H430.98V79.62ZM452.96 77.62V106H456.96V77.62H452.96ZM454.96 108H480.92V104H454.96V108ZM482.92 106V29H478.92V106H482.92ZM480.92 27H454.96V31H480.92V27ZM551.927 86.42H549.927V88.42H551.927V86.42ZM551.927 76.3V74.3H549.927V76.3H551.927ZM584.487 76.3V78.3H586.487V76.3H584.487ZM584.487 57.6H586.487V55.6H584.487V57.6ZM551.927 57.6H549.927V59.6H551.927V57.6ZM551.927 48.58V46.58H549.927V48.58H551.927ZM588.997 48.58V50.58H590.997V48.58H588.997ZM588.997 29H590.997V27H588.997V29ZM526.407 29V27H524.407V29H526.407ZM526.407 106H524.407V108H526.407V106ZM590.427 106V108H592.427V106H590.427ZM590.427 86.42H592.427V84.42H590.427V86.42ZM553.927 86.42V76.3H549.927V86.42H553.927ZM551.927 78.3H584.487V74.3H551.927V78.3ZM586.487 76.3V57.6H582.487V76.3H586.487ZM584.487 55.6H551.927V59.6H584.487V55.6ZM553.927 57.6V48.58H549.927V57.6H553.927ZM551.927 50.58H588.997V46.58H551.927V50.58ZM590.997 48.58V29H586.997V48.58H590.997ZM588.997 27H526.407V31H588.997V27ZM524.407 29V106H528.407V29H524.407ZM526.407 108H590.427V104H526.407V108ZM592.427 106V86.42H588.427V106H592.427ZM590.427 84.42H551.927V88.42H590.427V84.42ZM651.02 29V27H649.02V29H651.02ZM651.02 63.98L649.486 65.2632L653.02 69.4881V63.98H651.02ZM621.76 29L623.294 27.7168L622.695 27H621.76V29ZM600.42 29V27H598.42V29H600.42ZM600.42 106H598.42V108H600.42V106ZM625.72 106V108H627.72V106H625.72ZM625.72 71.02L627.254 69.7368L623.72 65.5118V71.02H625.72ZM654.98 106L653.446 107.283L654.046 108H654.98V106ZM676.32 106V108H678.32V106H676.32ZM676.32 29H678.32V27H676.32V29ZM649.02 29V63.98H653.02V29H649.02ZM652.554 62.6968L623.294 27.7168L620.226 30.2832L649.486 65.2632L652.554 62.6968ZM621.76 27H600.42V31H621.76V27ZM598.42 29V106H602.42V29H598.42ZM600.42 108H625.72V104H600.42V108ZM627.72 106V71.02H623.72V106H627.72ZM624.186 72.3032L653.446 107.283L656.514 104.717L627.254 69.7368L624.186 72.3032ZM654.98 108H676.32V104H654.98V108ZM678.32 106V29H674.32V106H678.32ZM676.32 27H651.02V31H676.32V27ZM739.759 84.88L740.523 86.728L741.759 86.2169V84.88H739.759ZM747.899 56.72L746.384 58.0265L747.704 59.5564L749.221 58.2208L747.899 56.72ZM764.509 42.09L765.831 43.5908L767.276 42.3177L766.058 40.8255L764.509 42.09ZM762.309 97.97L763.436 99.622L764.309 99.0265V97.97H762.309ZM762.309 65.41H764.309V63.41H762.309V65.41ZM739.759 65.41V63.41H737.759V65.41H739.759ZM738.994 83.032C736.06 84.246 733.241 84.75 730.299 84.75V88.75C733.736 88.75 737.077 88.154 740.523 86.728L738.994 83.032ZM730.299 84.75C725.224 84.75 721.179 83.0031 718.397 80.078C715.605 77.1429 713.929 72.8543 713.929 67.5H709.929C709.929 73.6957 711.882 79.0321 715.498 82.8345C719.124 86.6469 724.264 88.75 730.299 88.75V84.75ZM713.929 67.5C713.929 61.9691 715.611 57.6968 718.42 54.8163C721.224 51.9411 725.348 50.25 730.629 50.25V46.25C724.47 46.25 719.243 48.2439 715.557 52.0236C711.876 55.7982 709.929 61.1509 709.929 67.5H713.929ZM730.629 50.25C736.781 50.25 741.864 52.7873 746.384 58.0265L749.413 55.4135C744.253 49.4327 738.116 46.25 730.629 46.25V50.25ZM749.221 58.2208L765.831 43.5908L763.187 40.5892L746.577 55.2192L749.221 58.2208ZM766.058 40.8255C757.794 30.699 744.961 25.24 729.309 25.24V29.24C744.016 29.24 755.603 34.341 762.959 43.3545L766.058 40.8255ZM729.309 25.24C716.166 25.24 704.773 29.5398 696.644 37.0305C688.505 44.532 683.749 55.1373 683.749 67.5H687.749C687.749 56.2127 692.068 46.688 699.355 39.972C706.654 33.2452 717.041 29.24 729.309 29.24V25.24ZM683.749 67.5C683.749 92.3891 702.933 109.76 728.759 109.76V105.76C704.864 105.76 687.749 89.9109 687.749 67.5H683.749ZM728.759 109.76C740.426 109.76 753.704 106.263 763.436 99.622L761.181 96.318C752.213 102.437 739.751 105.76 728.759 105.76V109.76ZM764.309 97.97V65.41H760.309V97.97H764.309ZM762.309 63.41H739.759V67.41H762.309V63.41ZM737.759 65.41V84.88H741.759V65.41H737.759ZM773.37 106H771.37V108H773.37V106ZM799.33 106V108H801.33V106H799.33ZM799.33 29H801.33V27H799.33V29ZM773.37 29V27H771.37V29H773.37ZM773.37 108H799.33V104H773.37V108ZM801.33 106V29H797.33V106H801.33ZM799.33 27H773.37V31H799.33V27ZM771.37 29V106H775.37V29H771.37ZM862.427 29V27H860.427V29H862.427ZM862.427 63.98L860.893 65.2632L864.427 69.4881V63.98H862.427ZM833.167 29L834.701 27.7168L834.101 27H833.167V29ZM811.827 29V27H809.827V29H811.827ZM811.827 106H809.827V108H811.827V106ZM837.127 106V108H839.127V106H837.127ZM837.127 71.02L838.661 69.7368L835.127 65.5118V71.02H837.127ZM866.387 106L864.853 107.283L865.452 108H866.387V106ZM887.727 106V108H889.727V106H887.727ZM887.727 29H889.727V27H887.727V29ZM860.427 29V63.98H864.427V29H860.427ZM863.961 62.6968L834.701 27.7168L831.633 30.2832L860.893 65.2632L863.961 62.6968ZM833.167 27H811.827V31H833.167V27ZM809.827 29V106H813.827V29H809.827ZM811.827 108H837.127V104H811.827V108ZM839.127 106V71.02H835.127V106H839.127ZM835.593 72.3032L864.853 107.283L867.921 104.717L838.661 69.7368L835.593 72.3032ZM866.387 108H887.727V104H866.387V108ZM889.727 106V29H885.727V106H889.727ZM887.727 27H862.427V31H887.727V27ZM925.755 86.42H923.755V88.42H925.755V86.42ZM925.755 76.3V74.3H923.755V76.3H925.755ZM958.315 76.3V78.3H960.315V76.3H958.315ZM958.315 57.6H960.315V55.6H958.315V57.6ZM925.755 57.6H923.755V59.6H925.755V57.6ZM925.755 48.58V46.58H923.755V48.58H925.755ZM962.825 48.58V50.58H964.825V48.58H962.825ZM962.825 29H964.825V27H962.825V29ZM900.235 29V27H898.235V29H900.235ZM900.235 106H898.235V108H900.235V106ZM964.255 106V108H966.255V106H964.255ZM964.255 86.42H966.255V84.42H964.255V86.42ZM927.755 86.42V76.3H923.755V86.42H927.755ZM925.755 78.3H958.315V74.3H925.755V78.3ZM960.315 76.3V57.6H956.315V76.3H960.315ZM958.315 55.6H925.755V59.6H958.315V55.6ZM927.755 57.6V48.58H923.755V57.6H927.755ZM925.755 50.58H962.825V46.58H925.755V50.58ZM964.825 48.58V29H960.825V48.58H964.825ZM962.825 27H900.235V31H962.825V27ZM898.235 29V106H902.235V29H898.235ZM900.235 108H964.255V104H900.235V108ZM966.255 106V86.42H962.255V106H966.255ZM964.255 84.42H925.755V88.42H964.255V84.42Z" fill="#FECB46"/>
<path d="M98.67 228V230H100.676L100.67 227.994L98.67 228ZM98.45 151L100.45 150.994L100.444 149H98.45V151ZM77.11 151V149H75.9729L75.3914 149.977L77.11 151ZM52.69 192.03L50.9836 193.073L52.7128 195.902L54.4086 193.053L52.69 192.03ZM27.61 151L29.3165 149.957L28.7315 149H27.61V151ZM6.27 151V149H4.27V151H6.27ZM6.27 228H4.27V230H6.27V228ZM29.92 228V230H31.92V228H29.92ZM29.92 194.12L31.6195 193.066L27.92 187.103V194.12H29.92ZM46.64 221.07L44.9405 222.124L45.5272 223.07H46.64V221.07ZM58.08 221.07V223.07H59.2185L59.7997 222.091L58.08 221.07ZM74.8 192.91L76.8 192.897L76.7548 185.7L73.0803 191.889L74.8 192.91ZM75.02 228L73.02 228.013L73.0325 230H75.02V228ZM100.67 227.994L100.45 150.994L96.45 151.006L96.67 228.006L100.67 227.994ZM98.45 149H77.11V153H98.45V149ZM75.3914 149.977L50.9714 191.007L54.4086 193.053L78.8286 152.023L75.3914 149.977ZM54.3965 190.987L29.3165 149.957L25.9036 152.043L50.9836 193.073L54.3965 190.987ZM27.61 149H6.27V153H27.61V149ZM4.27 151V228H8.27V151H4.27ZM6.27 230H29.92V226H6.27V230ZM31.92 228V194.12H27.92V228H31.92ZM28.2205 195.174L44.9405 222.124L48.3395 220.016L31.6195 193.066L28.2205 195.174ZM46.64 223.07H58.08V219.07H46.64V223.07ZM59.7997 222.091L76.5197 193.931L73.0803 191.889L56.3603 220.049L59.7997 222.091ZM72.8 192.923L73.02 228.013L77.02 227.987L76.8 192.897L72.8 192.923ZM75.02 230H98.67V226H75.02V230ZM168.861 228L166.995 228.719L167.488 230H168.861V228ZM195.701 228V230H198.758L197.534 227.199L195.701 228ZM162.041 151L163.874 150.199L163.35 149H162.041V151ZM136.521 151V149H135.213L134.689 150.199L136.521 151ZM102.861 228L101.029 227.199L99.8041 230H102.861V228ZM129.261 228V230H130.634L131.127 228.719L129.261 228ZM134.431 214.58V212.58H133.058L132.565 213.861L134.431 214.58ZM163.691 214.58L165.557 213.861L165.064 212.58H163.691V214.58ZM141.581 195.88L139.716 195.159L138.664 197.88H141.581V195.88ZM149.061 176.52L150.927 175.799L149.061 170.971L147.196 175.799L149.061 176.52ZM156.541 195.88V197.88H159.458L158.407 195.159L156.541 195.88ZM168.861 230H195.701V226H168.861V230ZM197.534 227.199L163.874 150.199L160.209 151.801L193.869 228.801L197.534 227.199ZM162.041 149H136.521V153H162.041V149ZM134.689 150.199L101.029 227.199L104.694 228.801L138.354 151.801L134.689 150.199ZM102.861 230H129.261V226H102.861V230ZM131.127 228.719L136.297 215.299L132.565 213.861L127.395 227.281L131.127 228.719ZM134.431 216.58H163.691V212.58H134.431V216.58ZM161.825 215.299L166.995 228.719L170.727 227.281L165.557 213.861L161.825 215.299ZM143.447 196.601L150.927 177.241L147.196 175.799L139.716 195.159L143.447 196.601ZM147.196 177.241L154.676 196.601L158.407 195.159L150.927 175.799L147.196 177.241ZM156.541 193.88H141.581V197.88H156.541V193.88ZM245.934 228L244.277 229.12L244.872 230H245.934V228ZM273.654 228V230H277.435L275.308 226.875L273.654 228ZM257.484 204.24L256.573 202.46L254.556 203.492L255.831 205.365L257.484 204.24ZM199.844 151V149H197.844V151H199.844ZM199.844 228H197.844V230H199.844V228ZM225.804 228V230H227.804V228H225.804ZM225.804 208.64V206.64H223.804V208.64H225.804ZM232.844 208.64L234.501 207.52L233.906 206.64H232.844V208.64ZM225.804 189.06H223.804V191.06H225.804V189.06ZM225.804 171.02V169.02H223.804V171.02H225.804ZM245.934 230H273.654V226H245.934V230ZM275.308 226.875L259.138 203.115L255.831 205.365L272.001 229.125L275.308 226.875ZM258.396 206.02C268.311 200.945 274.004 191.893 274.004 180.04H270.004C270.004 190.407 265.138 198.075 256.573 202.46L258.396 206.02ZM274.004 180.04C274.004 170.576 270.36 162.734 263.777 157.296C257.235 151.891 247.969 149 236.914 149V153C247.309 153 255.588 155.719 261.229 160.379C266.829 165.005 270.004 171.684 270.004 180.04H274.004ZM236.914 149H199.844V153H236.914V149ZM197.844 151V228H201.844V151H197.844ZM199.844 230H225.804V226H199.844V230ZM227.804 228V208.64H223.804V228H227.804ZM225.804 210.64H232.844V206.64H225.804V210.64ZM231.187 209.76L244.277 229.12L247.591 226.88L234.501 207.52L231.187 209.76ZM243.824 180.04C243.824 182.431 243.111 184.078 241.896 185.16C240.643 186.274 238.551 187.06 235.264 187.06V191.06C239.127 191.06 242.315 190.141 244.555 188.148C246.832 186.122 247.824 183.259 247.824 180.04H243.824ZM235.264 187.06H225.804V191.06H235.264V187.06ZM227.804 189.06V171.02H223.804V189.06H227.804ZM225.804 173.02H235.264V169.02H225.804V173.02ZM235.264 173.02C238.551 173.02 240.643 173.806 241.896 174.92C243.111 176.002 243.824 177.649 243.824 180.04H247.824C247.824 176.821 246.832 173.958 244.555 171.932C242.315 169.939 239.127 169.02 235.264 169.02V173.02ZM332.407 228L330.81 229.204L331.411 230H332.407V228ZM362.437 228V230H366.437L364.037 226.8L362.437 228ZM330.097 184.88L328.617 183.535L327.505 184.758L328.497 186.08L330.097 184.88ZM360.897 151L362.377 152.345L365.418 149H360.897V151ZM332.627 151V149H331.74L331.145 149.658L332.627 151ZM307.327 178.94H305.327V184.128L308.81 180.282L307.327 178.94ZM307.327 151H309.327V149H307.327V151ZM281.807 151V149H279.807V151H281.807ZM281.807 228H279.807V230H281.807V228ZM307.327 228V230H309.327V228H307.327ZM307.327 208.97L305.839 207.633L305.327 208.204V208.97H307.327ZM313.157 202.48L314.754 201.276L313.292 199.337L311.669 201.143L313.157 202.48ZM332.407 230H362.437V226H332.407V230ZM364.037 226.8L331.697 183.68L328.497 186.08L360.837 229.2L364.037 226.8ZM331.577 186.225L362.377 152.345L359.417 149.655L328.617 183.535L331.577 186.225ZM360.897 149H332.627V153H360.897V149ZM331.145 149.658L305.845 177.598L308.81 180.282L334.11 152.342L331.145 149.658ZM309.327 178.94V151H305.327V178.94H309.327ZM307.327 149H281.807V153H307.327V149ZM279.807 151V228H283.807V151H279.807ZM281.807 230H307.327V226H281.807V230ZM309.327 228V208.97H305.327V228H309.327ZM308.815 210.307L314.645 203.817L311.669 201.143L305.839 207.633L308.815 210.307ZM311.56 203.684L330.81 229.204L334.004 226.796L314.754 201.276L311.56 203.684ZM391.438 208.42H389.438V210.42H391.438V208.42ZM391.438 198.3V196.3H389.438V198.3H391.438ZM423.998 198.3V200.3H425.998V198.3H423.998ZM423.998 179.6H425.998V177.6H423.998V179.6ZM391.438 179.6H389.438V181.6H391.438V179.6ZM391.438 170.58V168.58H389.438V170.58H391.438ZM428.508 170.58V172.58H430.508V170.58H428.508ZM428.508 151H430.508V149H428.508V151ZM365.918 151V149H363.918V151H365.918ZM365.918 228H363.918V230H365.918V228ZM429.938 228V230H431.938V228H429.938ZM429.938 208.42H431.938V206.42H429.938V208.42ZM393.438 208.42V198.3H389.438V208.42H393.438ZM391.438 200.3H423.998V196.3H391.438V200.3ZM425.998 198.3V179.6H421.998V198.3H425.998ZM423.998 177.6H391.438V181.6H423.998V177.6ZM393.438 179.6V170.58H389.438V179.6H393.438ZM391.438 172.58H428.508V168.58H391.438V172.58ZM430.508 170.58V151H426.508V170.58H430.508ZM428.508 149H365.918V153H428.508V149ZM363.918 151V228H367.918V151H363.918ZM365.918 230H429.938V226H365.918V230ZM431.938 228V208.42H427.938V228H431.938ZM429.938 206.42H391.438V210.42H429.938V206.42ZM456.652 228H454.652V230H456.652V228ZM482.612 228V230H484.612V228H482.612ZM482.612 171.13V169.13H480.612V171.13H482.612ZM505.162 171.13V173.13H507.162V171.13H505.162ZM505.162 151H507.162V149H505.162V151ZM434.102 151V149H432.102V151H434.102ZM434.102 171.13H432.102V173.13H434.102V171.13ZM456.652 171.13H458.652V169.13H456.652V171.13ZM456.652 230H482.612V226H456.652V230ZM484.612 228V171.13H480.612V228H484.612ZM482.612 173.13H505.162V169.13H482.612V173.13ZM507.162 171.13V151H503.162V171.13H507.162ZM505.162 149H434.102V153H505.162V149ZM432.102 151V171.13H436.102V151H432.102ZM434.102 173.13H456.652V169.13H434.102V173.13ZM454.652 171.13V228H458.652V171.13H454.652ZM511.905 228H509.905V230H511.905V228ZM537.865 228V230H539.865V228H537.865ZM537.865 151H539.865V149H537.865V151ZM511.905 151V149H509.905V151H511.905ZM511.905 230H537.865V226H511.905V230ZM539.865 228V151H535.865V228H539.865ZM537.865 149H511.905V153H537.865V149ZM509.905 151V228H513.905V151H509.905ZM600.962 151V149H598.962V151H600.962ZM600.962 185.98L599.428 187.263L602.962 191.488V185.98H600.962ZM571.702 151L573.236 149.717L572.636 149H571.702V151ZM550.362 151V149H548.362V151H550.362ZM550.362 228H548.362V230H550.362V228ZM575.662 228V230H577.662V228H575.662ZM575.662 193.02L577.196 191.737L573.662 187.512V193.02H575.662ZM604.922 228L603.388 229.283L603.987 230H604.922V228ZM626.262 228V230H628.262V228H626.262ZM626.262 151H628.262V149H626.262V151ZM598.962 151V185.98H602.962V151H598.962ZM602.496 184.697L573.236 149.717L570.168 152.283L599.428 187.263L602.496 184.697ZM571.702 149H550.362V153H571.702V149ZM548.362 151V228H552.362V151H548.362ZM550.362 230H575.662V226H550.362V230ZM577.662 228V193.02H573.662V228H577.662ZM574.128 194.303L603.388 229.283L606.456 226.717L577.196 191.737L574.128 194.303ZM604.922 230H626.262V226H604.922V230ZM628.262 228V151H624.262V228H628.262ZM626.262 149H600.962V153H626.262V149ZM689.7 206.88L690.465 208.728L691.7 208.217V206.88H689.7ZM697.84 178.72L696.326 180.026L697.646 181.556L699.162 180.221L697.84 178.72ZM714.45 164.09L715.772 165.591L717.217 164.318L716 162.825L714.45 164.09ZM712.25 219.97L713.377 221.622L714.25 221.027V219.97H712.25ZM712.25 187.41H714.25V185.41H712.25V187.41ZM689.7 187.41V185.41H687.7V187.41H689.7ZM688.935 205.032C686.001 206.246 683.183 206.75 680.24 206.75V210.75C683.677 210.75 687.019 210.154 690.465 208.728L688.935 205.032ZM680.24 206.75C675.165 206.75 671.12 205.003 668.338 202.078C665.547 199.143 663.87 194.854 663.87 189.5H659.87C659.87 195.696 661.823 201.032 665.439 204.835C669.065 208.647 674.205 210.75 680.24 210.75V206.75ZM663.87 189.5C663.87 183.969 665.553 179.697 668.362 176.816C671.166 173.941 675.289 172.25 680.57 172.25V168.25C674.411 168.25 669.184 170.244 665.498 174.024C661.817 177.798 659.87 183.151 659.87 189.5H663.87ZM680.57 172.25C686.722 172.25 691.806 174.787 696.326 180.026L699.354 177.414C694.194 171.433 688.058 168.25 680.57 168.25V172.25ZM699.162 180.221L715.772 165.591L713.128 162.589L696.518 177.219L699.162 180.221ZM716 162.825C707.735 152.699 694.902 147.24 679.25 147.24V151.24C693.958 151.24 705.545 156.341 712.901 165.355L716 162.825ZM679.25 147.24C666.108 147.24 654.714 151.54 646.586 159.031C638.446 166.532 633.69 177.137 633.69 189.5H637.69C637.69 178.213 642.009 168.688 649.297 161.972C656.596 155.245 666.982 151.24 679.25 151.24V147.24ZM633.69 189.5C633.69 214.389 652.875 231.76 678.7 231.76V227.76C654.805 227.76 637.69 211.911 637.69 189.5H633.69ZM678.7 231.76C690.368 231.76 703.645 228.263 713.377 221.622L711.123 218.318C702.155 224.437 689.692 227.76 678.7 227.76V231.76ZM714.25 219.97V187.41H710.25V219.97H714.25ZM712.25 185.41H689.7V189.41H712.25V185.41ZM687.7 187.41V206.88H691.7V187.41H687.7Z" fill="#FECB46"/>
</svg>
