<svg width="24" height="19" viewBox="0 0 24 19" fill="none" xmlns="http://www.w3.org/2000/svg">
<path d="M20.7529 4.73514C20.7676 4.94294 20.7676 5.15079 20.7676 5.35859C20.7676 11.6968 15.9976 19 7.27965 19C4.5938 19 2.09878 18.2132 0 16.8477C0.381608 16.8922 0.748489 16.907 1.14478 16.907C3.36093 16.907 5.40102 16.15 7.03014 14.8586C4.94605 14.8141 3.19951 13.4336 2.59776 11.5336C2.89132 11.5781 3.18483 11.6078 3.49307 11.6078C3.91868 11.6078 4.34434 11.5484 4.74058 11.4445C2.56844 10.9992 0.939271 9.06952 0.939271 6.73905V6.6797C1.57035 7.03595 2.30424 7.25861 3.08205 7.28826C1.80517 6.4273 0.968636 4.95779 0.968636 3.29528C0.968636 2.40467 1.20342 1.58826 1.61439 0.875759C3.948 3.78513 7.45575 5.6851 11.3891 5.89295C11.3157 5.5367 11.2717 5.16564 11.2717 4.79454C11.2717 2.15232 13.3851 0 16.0122 0C17.3772 0 18.61 0.578905 19.4759 1.51406C20.5473 1.30626 21.5747 0.905458 22.4847 0.356253C22.1324 1.46956 21.3839 2.40472 20.4006 2.99842C21.3546 2.89457 22.2792 2.62732 23.1304 2.25627C22.4848 3.20623 21.6775 4.05229 20.7529 4.73514V4.73514Z" fill="white"/>
</svg>
