<?xml version="1.0" encoding="utf-8"?>
<!-- Generator: Adobe Illustrator 25.0.1, SVG Export Plug-In . SVG Version: 6.00 Build 0)  -->
<svg version="1.1" id="Capa_1" xmlns="http://www.w3.org/2000/svg" xmlns:xlink="http://www.w3.org/1999/xlink" x="0px" y="0px"
	 viewBox="0 0 1141 115" style="enable-background:new 0 0 1141 115;" xml:space="preserve">
<style type="text/css">
	.st0{fill:#FECB46;}
</style>
<path class="st0" d="M154.8,5V3h-1.5l-0.4,1.4L154.8,5z M135.4,65.4l-1.9,0.6l1.9,6.1l2-6.1L135.4,65.4z M117.2,5l1.9-0.6L118.6,3
	h-1.5V5z M84.6,5V3h-1.5l-0.4,1.4L84.6,5z M65.2,64.7l-1.9,0.6l1.9,6.1l2-6L65.2,64.7z M47,5l1.9-0.6L48.4,3H47V5z M10.5,5V3H7.8
	l0.8,2.6L10.5,5z M44.1,110l-1.9,0.6l0.4,1.4h1.5V110z M82.1,110v2h1.5l0.4-1.4L82.1,110z M99.9,53.9l1.9-0.6l-1.9-6.2l-2,6.1
	L99.9,53.9z M116.8,110l-1.9,0.6l0.4,1.4h1.5V110z M154.8,110v2h1.5l0.4-1.4L154.8,110z M188.4,5l1.9,0.6l0.8-2.6h-2.7V5z
	 M152.9,4.4l-19.3,60.5l3.8,1.2l19.3-60.4L152.9,4.4z M137.4,64.9L119.1,4.4l-3.8,1.2L133.5,66L137.4,64.9z M117.2,3H84.6v4h32.6V3z
	 M82.7,4.4L63.3,64.1l3.8,1.2L86.5,5.6L82.7,4.4z M67.2,64.1L48.9,4.4L45,5.6l18.3,59.7L67.2,64.1z M47,3H10.5v4H47V3z M8.6,5.6
	l33.6,105l3.8-1.2L12.4,4.4L8.6,5.6z M44.1,112h38v-4h-38V112z M84,110.6l17.8-56.1L98,53.3l-17.8,56.1L84,110.6z M98,54.5l17,56.1
	l3.8-1.2l-17-56.1L98,54.5z M116.8,112h38v-4h-38V112z M156.7,110.6l33.6-105l-3.8-1.2l-33.6,105L156.7,110.6z M188.4,3h-33.6v4
	h33.6V3z M264.4,5V3h-2v2H264.4z M264.4,42.2v2h2v-2H264.4z M231.7,42.2h-2v2h2V42.2z M231.7,5h2V3h-2V5z M196.3,5V3h-2v2H196.3z
	 M196.3,110h-2v2h2V110z M231.7,110v2h2v-2H231.7z M231.7,71.3v-2h-2v2H231.7z M264.4,71.3h2v-2h-2V71.3z M264.4,110h-2v2h2V110z
	 M299.8,110v2h2v-2H299.8z M299.8,5h2V3h-2V5z M262.4,5v37.2h4V5H262.4z M264.4,40.2h-32.7v4h32.7V40.2z M233.7,42.2V5h-4v37.2
	H233.7z M231.7,3h-35.4v4h35.4V3z M194.3,5v105h4V5H194.3z M196.3,112h35.4v-4h-35.4V112z M233.7,110V71.3h-4V110H233.7z
	 M231.7,73.3h32.7v-4h-32.7V73.3z M262.4,71.3V110h4V71.3H262.4z M264.4,112h35.4v-4h-35.4V112z M301.8,110V5h-4v105H301.8z
	 M299.8,3h-35.4v4h35.4V3z M395.4,110l-1.9,0.7l0.5,1.3h1.4V110z M432,110v2h3.1l-1.2-2.8L432,110z M386.1,5l1.8-0.8L387.4,3h-1.3V5
	z M351.3,5V3H350l-0.5,1.2L351.3,5z M305.4,110l-1.8-0.8l-1.2,2.8h3.1V110z M341.4,110v2h1.4l0.5-1.3L341.4,110z M348.5,91.7v-2
	h-1.4l-0.5,1.3L348.5,91.7z M388.4,91.7l1.9-0.7l-0.5-1.3h-1.4V91.7z M358.2,66.2l-1.9-0.7l-1.1,2.7h2.9V66.2z M368.4,39.8l1.9-0.7
	l-1.9-4.8l-1.9,4.8L368.4,39.8z M378.6,66.2v2h2.9l-1.1-2.7L378.6,66.2z M395.4,112H432v-4h-36.6V112z M433.9,109.2L388,4.2
	l-3.7,1.6l45.9,105L433.9,109.2z M386.1,3h-34.8v4h34.8V3z M349.5,4.2l-45.9,105l3.7,1.6l45.9-105L349.5,4.2z M305.4,112h36v-4h-36
	V112z M343.3,110.7l7.1-18.3l-3.7-1.4l-7.1,18.3L343.3,110.7z M348.5,93.7h39.9v-4h-39.9V93.7z M386.5,92.4l7,18.3l3.7-1.4l-7-18.3
	L386.5,92.4z M360.1,66.9l10.2-26.4l-3.7-1.4l-10.2,26.4L360.1,66.9z M366.6,40.5l10.2,26.4l3.7-1.4l-10.2-26.4L366.6,40.5z
	 M378.6,64.2h-20.4v4h20.4V64.2z M455.2,110h-2v2h2V110z M490.6,110v2h2v-2H490.6z M490.6,32.5v-2h-2v2H490.6z M521.3,32.5v2h2v-2
	H521.3z M521.3,5h2V3h-2V5z M424.4,5V3h-2v2H424.4z M424.4,32.5h-2v2h2V32.5z M455.2,32.5h2v-2h-2V32.5z M455.2,112h35.4v-4h-35.4
	V112z M492.6,110V32.5h-4V110H492.6z M490.6,34.5h30.8v-4h-30.8V34.5z M523.3,32.5V5h-4v27.5H523.3z M521.3,3h-96.9v4h96.9V3z
	 M422.4,5v27.5h4V5H422.4z M424.4,34.5h30.8v-4h-30.8V34.5z M453.2,32.5V110h4V32.5H453.2z M712.8,5V3h-1.5l-0.4,1.4L712.8,5z
	 M693.4,65.4l-1.9,0.6l1.9,6.1l2-6.1L693.4,65.4z M675.1,5l1.9-0.6L676.6,3h-1.5V5z M642.6,5V3h-1.5l-0.4,1.4L642.6,5z M623.2,64.7
	l-1.9,0.6l1.9,6.1l2-6L623.2,64.7z M604.9,5l1.9-0.6L606.4,3h-1.5V5z M568.5,5V3h-2.7l0.8,2.6L568.5,5z M602.1,110l-1.9,0.6l0.4,1.4
	h1.5V110z M640,110v2h1.5l0.4-1.4L640,110z M657.9,53.9l1.9-0.6l-1.9-6.2l-2,6.1L657.9,53.9z M674.8,110l-1.9,0.6l0.4,1.4h1.5V110z
	 M712.8,110v2h1.5l0.4-1.4L712.8,110z M746.4,5l1.9,0.6l0.8-2.6h-2.7V5z M710.9,4.4l-19.3,60.5l3.8,1.2l19.3-60.4L710.9,4.4z
	 M695.3,64.9L677,4.4l-3.8,1.2L691.5,66L695.3,64.9z M675.1,3h-32.5v4h32.5V3z M640.7,4.4l-19.3,59.7l3.8,1.2l19.3-59.7L640.7,4.4z
	 M625.1,64.1L606.8,4.4L603,5.6l18.3,59.7L625.1,64.1z M604.9,3h-36.5v4h36.5V3z M566.6,5.6l33.6,105l3.8-1.2l-33.6-105L566.6,5.6z
	 M602.1,112H640v-4h-37.9V112z M641.9,110.6l17.9-56.1l-3.8-1.2l-17.8,56.1L641.9,110.6z M655.9,54.5l17,56.1l3.8-1.2l-17-56.1
	L655.9,54.5z M674.8,112h37.9v-4h-37.9V112z M714.7,110.6l33.6-105l-3.8-1.2l-33.6,105L714.7,110.6z M746.4,3h-33.6v4h33.6V3z
	 M789,83.3h-2v2h2V83.3z M789,69.5v-2h-2v2H789z M833.4,69.5v2h2v-2H833.4z M833.4,44h2v-2h-2V44z M789,44h-2v2h2V44z M789,31.7v-2
	h-2v2H789z M839.6,31.7v2h2v-2H839.6z M839.6,5h2V3h-2V5z M754.2,5V3h-2v2H754.2z M754.2,110h-2v2h2V110z M841.5,110v2h2v-2H841.5z
	 M841.5,83.3h2v-2h-2V83.3z M791,83.3V69.5h-4v13.8H791z M789,71.5h44.4v-4H789V71.5z M835.4,69.5V44h-4v25.5H835.4z M833.4,42H789
	v4h44.4V42z M791,44V31.7h-4V44H791z M789,33.7h50.5v-4H789V33.7z M841.6,31.7V5h-4v26.7H841.6z M839.6,3h-85.4v4h85.4V3z M752.2,5
	v105h4V5H752.2z M754.2,112h87.3v-4h-87.3V112z M843.5,110V83.3h-4V110H843.5z M841.5,81.3H789v4h52.5V81.3z M900.1,110h-2v2h2V110z
	 M900.1,5V3h-2v2H900.1z M935.5,82.4h-2v2h2V82.4z M935.5,32.6v-2h-2v2H935.5z M900.1,112h51.8v-4h-51.8V112z M951.9,112
	c17.9,0,33.2-5.1,44.1-14.5c10.9-9.5,17.2-23.2,17.2-40h-4c0,15.7-5.8,28.3-15.8,36.9c-10,8.7-24.3,13.6-41.5,13.6V112z
	 M1013.1,57.5c0-16.8-6.3-30.5-17.2-40C985.1,8.1,969.8,3,951.9,3v4c17.2,0,31.5,4.9,41.5,13.6c10,8.6,15.8,21.2,15.8,36.9H1013.1z
	 M951.9,3h-51.8v4h51.8V3z M898.1,5v105h4V5H898.1z M937.5,82.4V32.6h-4v49.8H937.5z M935.5,34.6h14.8v-4h-14.8V34.6z M950.4,34.6
	c7,0,12.8,2.1,16.7,5.9c3.9,3.8,6.3,9.4,6.3,17h4c0-8.5-2.7-15.2-7.6-19.9c-4.9-4.7-11.7-7-19.5-7V34.6z M973.4,57.5
	c0,7.6-2.4,13.3-6.3,17c-4,3.8-9.7,5.9-16.7,5.9v4c7.8,0,14.6-2.3,19.5-7c4.9-4.7,7.6-11.5,7.6-19.9H973.4z M950.4,80.4h-14.8v4
	h14.8V80.4z M1079.1,114.4c35.2,0,61.2-23.9,61.2-56.9h-4c0,30.6-24,52.9-57.2,52.9V114.4z M1140.3,57.5c0-33-26.1-56.9-61.2-56.9v4
	c33.2,0,57.2,22.3,57.2,52.9H1140.3z M1079.1,0.6c-35.2,0-61.2,23.9-61.2,56.9h4c0-30.6,24-52.9,57.2-52.9V0.6z M1017.8,57.5
	c0,33,26.1,56.9,61.2,56.9v-4c-33.2,0-57.2-22.3-57.2-52.9H1017.8z M1079.1,81.8c-6,0-11.3-2.3-15.2-6.4c-3.9-4.1-6.3-10.1-6.3-17.9
	h-4c0,8.6,2.8,15.7,7.4,20.6c4.7,4.9,11.1,7.6,18.1,7.6V81.8z M1057.5,57.5c0-7.7,2.5-13.8,6.3-17.9c3.9-4.1,9.2-6.4,15.2-6.4v-4
	c-7,0-13.5,2.7-18.1,7.6c-4.6,4.9-7.4,12-7.4,20.6H1057.5z M1079.1,33.2c6,0,11.4,2.3,15.2,6.4c3.9,4.1,6.3,10.1,6.3,17.9h4
	c0-8.6-2.8-15.7-7.4-20.6c-4.7-4.9-11.1-7.6-18.1-7.6V33.2z M1100.6,57.5c0,7.7-2.5,13.8-6.3,17.9c-3.9,4.1-9.2,6.4-15.2,6.4v4
	c7.1,0,13.5-2.7,18.1-7.6c4.7-4.9,7.4-12,7.4-20.6H1100.6z"/>
</svg>
